<?xml version="1.0" encoding="utf-8"?>
<!-- Generator: Adobe Illustrator 22.1.0, SVG Export Plug-In . SVG Version: 6.00 Build 0)  -->
<svg version="1.1" xmlns="http://www.w3.org/2000/svg" xmlns:xlink="http://www.w3.org/1999/xlink" x="0px" y="0px"
	 viewBox="0 0 6 6" style="enable-background:new 0 0 6 6;" xml:space="preserve">
<style type="text/css">
	.st0{fill:#141414;}
</style>
<path class="st0" d="M5.431,0.083H1.542c-0.129,0-0.253,0.051-0.344,0.142C1.107,0.317,1.056,0.44,1.056,0.569
	s0.051,0.253,0.142,0.344C1.29,1.004,1.413,1.055,1.542,1.055h2.715l-4.031,4.03C0.135,5.177,0.083,5.301,0.083,5.43
	c0,0.129,0.051,0.253,0.143,0.344S0.441,5.917,0.57,5.917s0.253-0.051,0.344-0.143l4.03-4.031v2.715
	c0,0.129,0.051,0.253,0.142,0.344c0.091,0.091,0.215,0.142,0.344,0.142s0.253-0.051,0.344-0.142C5.865,4.71,5.917,4.587,5.917,4.458
	V0.569c0-0.129-0.051-0.253-0.142-0.344C5.683,0.135,5.56,0.083,5.431,0.083z"/>
</svg>
