<?xml version="1.0" encoding="utf-8"?>
<!-- Generator: Adobe Illustrator 22.1.0, SVG Export Plug-In . SVG Version: 6.00 Build 0)  -->
<svg version="1.1" xmlns="http://www.w3.org/2000/svg" xmlns:xlink="http://www.w3.org/1999/xlink" x="0px" y="0px"
	 viewBox="0 0 21 21" style="enable-background:new 0 0 21 21;" xml:space="preserve">
<style type="text/css">
	.st0{fill:#141414;}
</style>
<path class="st0" d="M7.616,19.446c0.706,0,1.278-0.572,1.278-1.278c0-0.706-0.572-1.278-1.278-1.278s-1.278,0.572-1.278,1.278
	C6.339,18.873,6.911,19.446,7.616,19.446z"/>
<path class="st0" d="M16.562,19.446c0.706,0,1.278-0.572,1.278-1.278c0-0.706-0.572-1.278-1.278-1.278
	c-0.706,0-1.278,0.572-1.278,1.278C15.284,18.873,15.857,19.446,16.562,19.446z"/>
<path class="st0" d="M19.118,4.749H4.946L4.422,2.066c-0.03-0.147-0.11-0.278-0.227-0.371c-0.117-0.093-0.263-0.143-0.412-0.14
	H1.227v1.278h2.032L5.7,15.101c0.03,0.146,0.11,0.278,0.227,0.371s0.263,0.143,0.412,0.14H17.84v-1.278H6.863l-0.524-2.556H17.84
	c0.148,0.004,0.292-0.044,0.409-0.135c0.116-0.091,0.198-0.219,0.23-0.363l1.278-5.751c0.021-0.095,0.021-0.193-0.002-0.288
	c-0.022-0.095-0.066-0.183-0.128-0.258s-0.14-0.135-0.228-0.176C19.312,4.767,19.215,4.747,19.118,4.749z M17.329,10.5H6.096
	L5.202,6.027H18.32L17.329,10.5z"/>
</svg>
