<?xml version="1.0" encoding="utf-8"?>
<!-- Generator: Adobe Illustrator 22.1.0, SVG Export Plug-In . SVG Version: 6.00 Build 0)  -->
<svg version="1.1" xmlns="http://www.w3.org/2000/svg" xmlns:xlink="http://www.w3.org/1999/xlink" x="0px" y="0px"
	 viewBox="0 0 21 21" style="enable-background:new 0 0 21 21;" xml:space="preserve">
<style type="text/css">
	.st0{fill:#141414;}
</style>
<path class="st0" d="M10.5,11.875c-6.875,0-8.25,4.125-8.25,5.5s1.375,1.375,1.375,1.375h13.75c0,0,1.375,0,1.375-1.375
	S17.375,11.875,10.5,11.875z M17.364,17.372c-0.006,0.001-0.013,0.002-0.019,0.003H3.655c-0.01-0.002-0.02-0.004-0.03-0.005
	c0.003-0.338,0.212-1.356,1.144-2.288c0.897-0.897,2.582-1.832,5.731-1.832c3.147,0,4.834,0.935,5.731,1.831
	c0.932,0.932,1.143,1.95,1.144,2.288L17.364,17.372z"/>
<path class="st0" d="M13.417,3.458C12.643,2.685,11.594,2.25,10.5,2.25S8.357,2.685,7.583,3.458C6.81,4.232,6.375,5.281,6.375,6.375
	S6.81,8.518,7.583,9.292C8.357,10.065,9.406,10.5,10.5,10.5s2.143-0.435,2.917-1.208c0.774-0.774,1.208-1.823,1.208-2.917
	S14.19,4.232,13.417,3.458z M12.445,8.32c-0.516,0.515-1.216,0.805-1.945,0.805S9.071,8.835,8.555,8.32
	C8.04,7.804,7.75,7.104,7.75,6.375S8.04,4.946,8.555,4.43C9.071,3.915,9.771,3.625,10.5,3.625s1.429,0.29,1.945,0.805
	c0.516,0.516,0.805,1.215,0.805,1.945S12.96,7.804,12.445,8.32z"/>
</svg>
