<?xml version="1.0" encoding="utf-8"?>
<!-- Generator: Adobe Illustrator 22.1.0, SVG Export Plug-In . SVG Version: 6.00 Build 0)  -->
<svg version="1.1" xmlns="http://www.w3.org/2000/svg" xmlns:xlink="http://www.w3.org/1999/xlink" x="0px" y="0px"
	 viewBox="0 0 26 26" style="enable-background:new 0 0 26 26;" xml:space="preserve">
<style type="text/css">
	.st0{opacity:0.3;fill:#FFFFFF;}
</style>
<path class="st0" d="M24.454,3.377l-0.04-0.025l-5.074-2.5l-5.476,7.302l2.519,3.36c-0.075,1.267-0.613,2.462-1.51,3.36
	c-0.898,0.898-2.093,1.435-3.36,1.51l-3.36-2.52l-7.301,5.477l2.479,5.031l0.021,0.042l0.025,0.04
	c0.132,0.213,0.317,0.389,0.536,0.51c0.219,0.122,0.466,0.185,0.717,0.184h1.309c2.523,0,5.02-0.497,7.351-1.462
	s4.448-2.38,6.232-4.164c1.784-1.784,3.199-3.901,4.164-6.232s1.462-4.828,1.462-7.351V4.631c0.001-0.251-0.063-0.498-0.184-0.717
	C24.843,3.694,24.667,3.51,24.454,3.377z M23.273,5.94c0,9.558-7.776,17.334-17.334,17.334H4.88l-1.659-3.367l4.932-3.699
	l2.746,2.059h0.313c1.87-0.002,3.663-0.746,4.986-2.069s2.066-3.116,2.069-4.986v-0.313l-2.059-2.746l3.699-4.932l3.367,1.659
	L23.273,5.94L23.273,5.94z"/>
</svg>
