<?xml version="1.0" encoding="utf-8"?>
<!-- Generator: Adobe Illustrator 22.1.0, SVG Export Plug-In . SVG Version: 6.00 Build 0)  -->
<svg version="1.1" xmlns="http://www.w3.org/2000/svg" xmlns:xlink="http://www.w3.org/1999/xlink" x="0px" y="0px"
	 viewBox="0 0 23 100" style="enable-background:new 0 0 23 100;" xml:space="preserve">
<style type="text/css">
	.st0{fill:#8B1C2A;}
	.st1{fill:#FFFFFF;}
</style>
<rect class="st0" width="23" height="100"/>
<path class="st1" d="M6.622,15.896c0,0.768,0,1.44,0.528,1.404c-0.072,0.06-0.096,0.12-0.096,0.18c0,0.048,0.12,0.216,0.12,0.264
	c0,0.516-0.936,1.68-1.104,1.848c-0.24,0.252-0.264,0.276-0.264,0.348c0,0.036,0.024,0.084,0.096,0.084
	c0.528,0,1.164-0.72,2.04-1.704c0.264-0.288,0.324-0.372,0.324-0.468c0-0.228-0.54-0.684-0.96-0.612
	c0.384-0.312,0.42-0.36,0.624-0.396c0.276-0.06,0.996-0.144,1.02-0.144c0.096,0,0.192,0.072,0.228,0.108
	c0.228,0.204,0.288,0.252,0.408,0.252c0.276,0,0.384-0.336,0.384-0.984c0-0.192,0-0.408-0.012-0.708
	c-0.048-0.912-0.06-1.272-0.06-2.544c0-0.456,0.024-1.32,0.06-1.5c0.012-0.072,0.132-0.396,0.132-0.48
	c0-0.432-0.828-0.648-0.924-0.648c-0.072,0-0.408,0.216-0.48,0.24c-0.228,0.06-1.068,0.228-1.272,0.228
	c-0.132,0-0.78-0.216-0.936-0.216c-0.108,0-0.312,0.072-0.312,0.264c0,0.108,0.024,0.132,0.228,0.372
	c0.252,0.3,0.24,0.492,0.24,1.272L6.622,15.896z M8.998,14.756c0.024,0,0.048-0.012,0.096-0.012l0.012,1.188
	c-0.228,0.048-1.368,0.264-1.62,0.312c0-0.132,0.024-1.116,0.036-1.188c0.108-0.048,0.156-0.072,0.36-0.108L8.998,14.756z
	 M7.474,14.3l0.024-1.128c0.06-0.012,0.18-0.036,0.216-0.048l1.008-0.204c0.072-0.012,0.096-0.012,0.336-0.024l0.012,1.068
	c-0.12,0.024-0.708,0.12-0.84,0.156L7.474,14.3z M7.51,12.404v-0.9c0-0.072,0.012-0.096,0.096-0.108l1.152-0.228
	c0.036,0,0.264-0.024,0.288-0.024c0.024,0,0.024,0.036,0.024,0.12L9.058,12.08l-0.012,0.048L7.51,12.404z M14.578,11.468
	c0.132-0.144,0.336-0.396,0.384-0.456c0.06-0.084,0.372-0.516,0.456-0.612c0.204-0.228,0.228-0.264,0.228-0.384
	c0-0.336-0.684-0.696-1.032-0.696c-0.12,0-0.36,0.012-0.36,0.216c0,0.048,0.012,0.084,0.108,0.156
	c0.096,0.06,0.108,0.096,0.108,0.132c0,0.168-0.348,1.284-0.756,1.764c-0.324,0.06-2.112,0.324-2.34,0.324
	c-0.132,0-0.744-0.252-0.9-0.252c-0.168,0-0.252,0.132-0.348,0.3c0.096,0.072,0.3,0.288,0.348,0.408
	c0.06,0.336,0.084,0.552,0.132,0.852l0.276,1.656c0,0.072,0.108,0.624,0.528,0.624c0.12,0,0.168-0.036,0.372-0.204
	c0.072-0.06,0.828-0.168,0.96-0.18l1.176-0.156l1.008-0.072c0.168-0.012,0.216,0.012,0.276,0.06c0.18,0.144,0.276,0.204,0.408,0.204
	c0.276,0,0.444-0.3,0.48-0.456l0.492-1.848c0.036-0.12,0.06-0.216,0.156-0.408c0.108-0.204,0.144-0.252,0.144-0.336
	c0-0.216-0.168-0.336-0.264-0.408c-0.648-0.432-0.72-0.468-0.852-0.468c-0.108,0-0.636,0.168-0.756,0.18L14.578,11.468z
	 M11.686,14.564c-0.024-0.06-0.084-0.516-0.096-0.648l1.092-0.18c0.048-0.012,0.336-0.06,0.396-0.072v0.708
	c-0.12,0.012-0.312,0.06-0.636,0.096L11.686,14.564z M13.882,14.288c0-0.132,0.012-0.552,0.012-0.708
	c0.264-0.036,1.08-0.132,1.632-0.204c-0.072,0.372-0.084,0.444-0.204,0.792l-1.332,0.108L13.882,14.288z M13.918,12.248l1.14-0.156
	c0.12-0.012,0.348-0.048,0.456-0.048c0.108,0,0.264,0,0.264,0.096c0,0.144-0.072,0.42-0.084,0.492
	c-0.288,0.06-0.576,0.108-0.864,0.144l-0.912,0.12V12.248z M11.986,13.172c-0.072,0.012-0.408,0.072-0.48,0.084
	c-0.036-0.12-0.084-0.468-0.084-0.624l1.236-0.204c0.108-0.012,0.216-0.024,0.276-0.024c0.048,0,0.072,0,0.084,0.072
	c0,0.06,0.024,0.456,0.024,0.54L11.986,13.172z M10.99,15.98c0,0.048,0.036,0.096,0.084,0.156c0.084,0.072,0.192,0.18,0.228,0.228
	c0.084,0.156,0.144,1.764,0.168,2.256c0.036,1.116,0.072,1.572,0.528,1.572c0.084,0,0.144-0.024,0.192-0.06
	c0.096-0.072,0.192-0.144,0.276-0.204c0.216-0.108,2.124-0.276,2.28-0.276c0.096,0,0.132,0.012,0.264,0.168
	c0.072,0.096,0.192,0.216,0.348,0.216c0.444,0,0.468-0.768,0.48-1.14c0.012-0.24,0.096-2.064,0.132-2.22
	c0.012-0.084,0.18-0.456,0.18-0.54c0-0.324-0.792-0.72-0.96-0.72c-0.084,0-0.48,0.144-0.564,0.168c-0.312,0.06-1.92,0.3-2.244,0.3
	c-0.192,0-0.336-0.036-0.396-0.048c-0.084-0.024-0.48-0.132-0.576-0.132C11.254,15.704,10.99,15.884,10.99,15.98z M12.358,19.16
	c-0.024-0.168-0.06-0.72-0.06-0.768c0-0.096,0.012-0.156,0.036-0.252c0.192-0.048,0.624-0.096,0.852-0.12l1.332-0.144
	c0.192-0.024,0.336-0.024,0.504-0.024c0.012,0.312,0,0.54-0.072,1.056c-0.072,0.012-0.468,0.036-0.552,0.036L12.358,19.16z
	 M10.798,9.812c0,0.048,0.012,0.072,0.132,0.216c0.336,0.408,0.444,0.54,0.768,1.212c0.228,0.48,0.252,0.552,0.516,0.552
	c0.336,0,0.408-0.348,0.408-0.552c0-1.104-1.668-1.524-1.704-1.524C10.846,9.716,10.798,9.752,10.798,9.812z M8.626,17.264
	c-0.036,0-0.12,0.012-0.12,0.072c0,0.096,0.108,0.192,0.204,0.3c0.636,0.66,0.864,1.212,0.912,1.32
	c0.204,0.504,0.228,0.564,0.432,0.564c0.264,0,0.444-0.24,0.444-0.588c0-0.492-0.36-0.828-0.936-1.2
	C9.538,17.72,8.818,17.264,8.626,17.264z M12.286,17.408c-0.012-0.252-0.024-0.384-0.012-0.78l2.472-0.324
	c0.048,0,0.204-0.036,0.252-0.036c0.036,0,0.06,0.252,0.06,0.408c0,0.06-0.012,0.18-0.024,0.396L12.286,17.408z M10.39,28.964
	l-0.948,0.06c-0.096,0.012-0.528-0.204-0.636-0.204c-0.132,0-0.336,0.132-0.336,0.276c0,0.072,0.024,0.096,0.18,0.216
	c0.192,0.144,0.276,1.2,0.3,1.476l0.048,0.696c0.012,0.204,0.048,0.804,0.468,0.804c0.192,0,0.348-0.18,0.408-0.324l0.42-0.048
	l1.62-0.108l1.02-0.036c0.024,0,0.552,0.072,0.636,0.072c0.132,0,0.36-0.108,0.36-0.348c0-0.18-0.06-0.252-0.132-0.3
	c0.084-0.216,0.168-0.408,0.24-0.624c0.024-0.096,0.168-0.576,0.204-0.672c0.024-0.084,0.264-0.408,0.264-0.492
	c0-0.252-0.66-0.804-0.936-0.804c-0.06,0-0.36,0.108-0.432,0.12c-0.084,0.012-0.468,0.048-0.564,0.048L10.39,28.964z M9.838,30.86
	l-0.096-1.116L11.41,29.6l1.764-0.12c0.108-0.012,0.144,0.024,0.144,0.096c0,0.132-0.072,0.384-0.108,0.516l-0.24,0.948
	c-0.072-0.024-0.096-0.024-0.156-0.012l-1.38,0.072l-1.248,0.084l-0.324,0.024L9.838,30.86z M9.442,27.116
	c0.84-0.708,1.392-1.284,1.86-1.908c0.252,0.228,0.984,0.888,1.692,1.488c0.636,0.528,1.476,1.236,1.884,1.608
	c0.36,0.324,0.384,0.324,0.948,0.324c0.372,0,1.368-0.072,1.368-0.312c0-0.084-0.084-0.156-0.48-0.348
	c-0.612-0.3-1.296-0.624-1.764-0.912c-1.656-1.032-3.012-2.124-3.228-2.292c0.06-0.06,0.096-0.108,0.096-0.216
	c0-0.348-0.888-0.648-1.044-0.648c-0.132,0-0.264,0.06-0.384,0.144c0.132,0.144,0.192,0.3,0.192,0.396
	c0,0.708-2.412,2.988-4.14,4.104c-0.144,0.096-0.216,0.132-0.216,0.24c0,0.024,0.012,0.096,0.096,0.096
	c0.072,0,1.092-0.312,2.82-1.536c-0.06,0.24,0.504,0.768,0.84,0.768c0.084,0,1.032-0.132,1.164-0.144
	c0.54-0.06,1.392-0.144,1.644-0.144c0.36-0.012,0.792-0.024,0.792-0.408c0-0.372-0.528-0.48-0.684-0.48
	c-0.132,0-0.768,0.156-0.912,0.168c-0.156,0.024-1.5,0.168-1.86,0.168c-0.228,0-0.384-0.06-0.468-0.096
	C9.526,27.128,9.514,27.128,9.442,27.116z M8.65,22.964c0.384-0.372,0.54-0.564,0.54-0.78c0-0.312-0.696-0.828-0.96-0.828
	c-0.12,0-0.276,0.06-0.276,0.18c0,0.024,0.048,0.168,0.06,0.204c0.036,0.084,0.06,0.252,0.06,0.3c0,0.276-0.24,0.888-1.44,2.196
	c-0.096,0.108-0.408,0.444-0.408,0.504c0,0.024,0.012,0.108,0.096,0.108c0.288,0,1.224-0.696,1.332-0.792l0.492-0.42
	c0.276,0.072,0.3,0.084,0.48,0.06c0.24,0.396,0.396,0.828,0.456,0.972c0.24,0.648,0.264,0.72,0.48,0.72
	c0.396,0,0.492-0.528,0.492-0.6c0-0.468-0.588-1.008-0.828-1.224l0.216-0.012L11.23,23.3c0.192-0.024,0.3-0.156,0.3-0.348
	c0-0.372-0.612-0.456-0.78-0.456c-0.108,0-0.6,0.204-0.72,0.228L8.65,22.964z M13.078,22.808c0.504-0.588,0.564-0.648,0.564-0.768
	c0-0.216-0.66-0.696-0.96-0.696c-0.156,0-0.3,0.06-0.42,0.204c0.132,0.06,0.264,0.156,0.264,0.324c0,0.336-0.648,1.176-1.008,1.608
	c-0.072,0.084-0.288,0.336-0.288,0.396c0,0.012,0.012,0.108,0.108,0.108c0.036,0,0.384-0.048,1.188-0.624
	c0.192,0.096,0.264,0.132,0.48,0.132c0.204,0,0.372-0.012,0.624-0.048c-0.204,0.504-0.648,1.08-0.768,1.236
	c-0.18,0.228-0.252,0.324-0.252,0.396c0,0.024,0.012,0.12,0.12,0.12c0.288,0,1.968-1.38,1.968-1.716
	c0-0.024-0.012-0.048-0.024-0.108c0.036,0,0.228-0.024,0.276-0.024l0.936-0.024c0.036,0,0.156,0.024,0.18,0.024
	c0.228,0,0.36-0.24,0.36-0.336c0-0.312-0.564-0.564-0.816-0.564c-0.192,0-1.116,0.228-1.14,0.228l-1.068,0.12L13.078,22.808z
	 M8.902,40.772c-0.168,0.072-0.252,0.12-0.288,0.12c-0.144,0-0.144-0.096-0.144-0.9c0-0.564,0.12-2.076,0.3-3.396
	c0.024-0.156,0.168-0.972,0.168-1.152c0-0.432-0.552-0.888-0.924-0.888c-0.06,0-0.144,0.036-0.144,0.108c0,0.024,0,0.036,0.012,0.06
	c0.072,0.288,0.084,0.324,0.084,0.516c0,0.216-0.42,4.44-0.42,5.268c0,1.56,0.456,2.64,0.912,2.64c0.12,0,0.396-0.108,0.396-0.516
	c0-0.096-0.024-0.6-0.024-0.708c0-0.168,0.12-0.972,0.12-1.152H8.902z M11.014,36.524c1.44-0.18,1.608-0.204,2.172-0.204
	c0.624,0,0.984,0.036,1.116,0.048c0.084,0.012,0.54,0.06,0.648,0.06c0.312,0,0.444-0.228,0.444-0.408
	c0-0.612-0.84-0.612-0.972-0.612c-0.696,0-1.944,0.24-2.604,0.528C11.59,36.032,11.05,36.32,10.99,36.5L11.014,36.524z
	 M11.158,40.22c0,0.228,0.216,0.972,1.08,1.536c0.624,0.396,1.56,0.504,2.304,0.504c0.468,0,1.164,0,1.164-0.504
	c0-0.204-0.168-0.504-0.6-0.504c-0.132,0-0.732,0.036-0.876,0.036c-0.984,0-1.956-0.24-2.724-0.876
	c-0.048-0.048-0.264-0.288-0.288-0.288C11.17,40.124,11.158,40.184,11.158,40.22z M13.738,46.724c0.012,0.06,0.408,0.396,0.504,0.48
	c0.108,0.096,0.468,0.588,0.6,0.84c0.156,0.288,0.348,0.66,0.768,0.66c0.252,0,0.42-0.24,0.42-0.492
	c0-0.744-1.116-1.548-2.172-1.548C13.822,46.664,13.714,46.676,13.738,46.724z M10.39,46.892c0-0.084,0.024-0.276,0.024-0.324
	c0-0.636-0.672-0.9-1.032-0.9c-0.072,0-0.108,0.012-0.18,0.06c0.228,0.552,0.228,1.836,0.228,2.52c0,0.192-0.036,0.216-0.24,0.276
	C8.518,48.74,7.942,48.86,7.246,48.86c-0.108,0-0.12,0.036-0.12,0.132c0,0.552,0.732,0.696,0.888,0.696
	c0.072,0,0.132-0.012,0.252-0.048l1.08-0.276l0.072,0.048l-0.048,2.7l-0.024,0.06l-0.732,0.492c-0.024,0.024-0.996,0.696-0.996,1.38
	c0,0.348,0.132,0.552,0.984,1.092c0.264,0.168,0.504,0.312,0.816,0.312c0.48,0,0.66-0.264,0.732-0.444
	c0.084-0.192,0.072-0.552,0.072-1.2v-1.2c0-0.096,0.06-0.132,0.6-0.372c0.828-0.384,1.704-0.6,2.616-0.6
	c1.188,0,1.368,0.804,1.368,1.152c0,1.044-1.584,1.776-1.764,1.86c-0.12,0.06-0.708,0.288-0.828,0.36
	c0.012,0.084,0.168,0.084,0.264,0.084c0.84,0,3.348-0.396,3.348-2.364c0-1.056-0.744-1.932-2.292-1.932
	c-0.456,0-1.5,0.132-2.328,0.48l-0.876,0.372h-0.06l-0.036-0.072l0.036-1.176l0.036-1.236c0.012-0.096,0.048-0.108,0.432-0.228
	l0.972-0.312c0.192-0.06,0.3-0.204,0.3-0.384c0-0.228-0.264-0.504-0.612-0.504c-0.156,0-0.84,0.312-0.996,0.36
	c-0.06-0.072-0.06-0.096-0.048-0.336L10.39,46.892z M9.346,53.096l0.012,0.096l-0.012,1.104c0,0.036-0.036,0.288-0.132,0.288
	c-0.132,0-0.72-0.312-0.72-0.636c0-0.312,0.648-0.792,0.804-0.888L9.346,53.096z M11.554,60.056c-0.036,0.048-0.06,0.06-0.192,0.084
	l-3.108,0.672L7.462,60.98c-0.096,0.024-0.828,0.084-0.984,0.084c-0.072,0-0.12,0.024-0.12,0.12c0,0.564,0.72,0.768,0.948,0.768
	c0.048,0,0.624-0.168,0.72-0.192l0.996-0.276l1.044-0.264l1.428-0.312c0.108-0.012,0.12,0.12,0.12,0.192
	c0,0.12,0.012,0.756,0.012,0.9l-0.048,0.036c-0.264-0.108-0.444-0.12-0.576-0.12c-0.66,0-1.344,0.852-1.344,1.836
	c0,0.228,0,1.656,1.572,1.692c0.084,0.432-0.528,1.536-0.6,1.62c-0.12,0.144-0.54,0.66-0.636,0.792l0.024,0.024
	c0.708-0.084,2.136-0.924,2.28-2.544c0.036-0.348,0.048-0.384,0.168-0.708c0.12-0.312,0.132-1.344,0.12-1.56l-0.072-2.256
	l0.012-0.048l0.048-0.036l1.404-0.192l1.152-0.108h0.384c0.144,0,0.672,0,0.672-0.432c0-0.276-0.408-0.552-0.852-0.552
	c-0.156,0-0.9,0.156-1.068,0.18l-1.74,0.288l-0.024-0.552c-0.012-0.144,0.048-0.828,0.048-0.984c0-0.432-0.696-0.72-1.032-0.72
	c-0.096,0-0.216,0.012-0.3,0.12c0.12,0.24,0.264,0.756,0.276,0.996l0.072,0.96L11.554,60.056z M11.038,64.58
	c-0.372,0-0.552-0.42-0.552-0.816c0-0.54,0.204-1.08,0.528-1.08c0.18,0,0.504,0.228,0.504,0.828
	C11.518,64.124,11.458,64.58,11.038,64.58z M11.554,72.056c-0.036,0.048-0.06,0.06-0.192,0.084l-3.108,0.672L7.462,72.98
	c-0.096,0.024-0.828,0.084-0.984,0.084c-0.072,0-0.12,0.024-0.12,0.12c0,0.564,0.72,0.768,0.948,0.768
	c0.048,0,0.624-0.168,0.72-0.192l0.996-0.276l1.044-0.264l1.428-0.312c0.108-0.012,0.12,0.12,0.12,0.192
	c0,0.12,0.012,0.756,0.012,0.9l-0.048,0.036c-0.264-0.108-0.444-0.12-0.576-0.12c-0.66,0-1.344,0.852-1.344,1.836
	c0,0.228,0,1.656,1.572,1.692c0.084,0.432-0.528,1.536-0.6,1.62c-0.12,0.144-0.54,0.66-0.636,0.792l0.024,0.024
	c0.708-0.084,2.136-0.924,2.28-2.544c0.036-0.348,0.048-0.384,0.168-0.708c0.12-0.312,0.132-1.344,0.12-1.56l-0.072-2.256
	l0.012-0.048l0.048-0.036l1.404-0.192l1.152-0.108h0.384c0.144,0,0.672,0,0.672-0.432c0-0.276-0.408-0.552-0.852-0.552
	c-0.156,0-0.9,0.156-1.068,0.18l-1.74,0.288l-0.024-0.552c-0.012-0.144,0.048-0.828,0.048-0.984c0-0.432-0.696-0.72-1.032-0.72
	c-0.096,0-0.216,0.012-0.3,0.12c0.12,0.24,0.264,0.756,0.276,0.996l0.072,0.96L11.554,72.056z M11.038,76.58
	c-0.372,0-0.552-0.42-0.552-0.816c0-0.54,0.204-1.08,0.528-1.08c0.18,0,0.504,0.228,0.504,0.828
	C11.518,76.124,11.458,76.58,11.038,76.58z M9.346,84.392c-0.048-0.456-0.6-0.804-0.924-0.804c-0.144,0-0.18,0.048-0.216,0.096
	c0.132,0.3,0.156,0.372,0.204,0.648l0.276,1.62c0.012,0.036,0.024,0.12,0.024,0.144c0,0.084-0.384,0.324-0.444,0.384
	c-0.12,0.108-1.416,1.32-1.416,2.088c0,0.108,0.036,0.24,0.108,0.348C6.994,88.964,7.21,89.24,7.246,89.3
	c0.456,0.696,0.504,0.768,0.816,0.768c0.144,0,0.312-0.06,0.456-0.132c0.168-0.084,0.96-0.672,1.152-0.78
	c0.06,0.072,0.072,0.096,0.192,0.264c0.036,0.06,0.168,0.228,0.408,0.228c0.18,0,0.42-0.108,0.42-0.396
	c0-0.144-0.072-0.276-0.12-0.36c-0.06-0.096-0.18-0.3-0.18-0.384c0-0.06,0.624-0.744,0.72-0.888l0.588-0.84l0.816-1.272
	c1.512-0.048,2.52,0.72,2.52,2.076c0,1.92-1.968,2.772-2.232,2.856c-0.204,0.072-0.276,0.096-0.276,0.168
	c0,0.072,0.144,0.072,0.192,0.072c0.972,0,3.384-0.708,3.384-2.976c0-1.608-1.08-2.892-3.168-3.012l0.024-0.108l0.432-0.852
	c0.024-0.036,0.048-0.24,0.048-0.264c0-0.132-0.312-0.924-0.84-0.912c-0.096,0.456-0.168,0.744-0.408,1.332l-0.348,0.84
	c-0.072,0.048-0.108,0.072-0.204,0.096c-1.104,0.312-1.776,0.6-2.136,0.756l-0.048-0.216L9.346,84.392z M8.902,86.984
	c0.036,0.096,0.396,1.296,0.396,1.308c0,0.144-1.032,0.828-1.14,0.828c-0.144,0-0.432-0.396-0.432-0.648
	c0-0.204,0.588-1.104,1.14-1.5L8.902,86.984z M10.006,87.56c-0.228-0.54-0.336-1.08-0.336-1.104c0-0.132,0.048-0.156,0.504-0.372
	c0.264-0.12,0.9-0.384,1.152-0.372l-0.072,0.18l-0.504,0.816c-0.084,0.144-0.528,0.696-0.696,0.852H10.006z"/>
</svg>
