<?xml version="1.0" encoding="utf-8"?>
<!-- Generator: Adobe Illustrator 22.1.0, SVG Export Plug-In . SVG Version: 6.00 Build 0)  -->
<svg version="1.1" xmlns="http://www.w3.org/2000/svg" xmlns:xlink="http://www.w3.org/1999/xlink" x="0px" y="0px"
	 viewBox="0 0 34 34" style="enable-background:new 0 0 34 34;" xml:space="preserve">
<style type="text/css">
	.st0{fill:#DDDDDD;}
	.st1{fill:#141414;}
</style>
<path class="st0" d="M17,34C7.626,34,0,26.374,0,17S7.626,0,17,0s17,7.626,17,17S26.374,34,17,34z M17,1C8.178,1,1,8.178,1,17
	s7.178,16,16,16s16-7.178,16-16S25.822,1,17,1z"/>
<path class="st1" d="M21.031,11.75c0.455,0,0.906,0.09,1.325,0.266c0.42,0.176,0.8,0.434,1.119,0.759
	c0.657,0.667,1.024,1.565,1.024,2.5c0,0.936-0.368,1.833-1.024,2.5L17,24.331l-6.475-6.556c-0.656-0.667-1.024-1.564-1.024-2.5
	c0-0.935,0.368-1.833,1.024-2.5c0.319-0.325,0.699-0.582,1.119-0.759c0.42-0.176,0.87-0.267,1.325-0.267s0.905,0.091,1.325,0.267
	c0.42,0.176,0.8,0.434,1.119,0.759L17,14.4l1.581-1.612c0.318-0.329,0.698-0.59,1.119-0.768
	C20.121,11.841,20.574,11.749,21.031,11.75z M21.031,10.5c-0.622,0-1.237,0.123-1.81,0.363c-0.573,0.24-1.093,0.593-1.528,1.037
	L17,12.6l-0.694-0.7c-0.436-0.443-0.955-0.795-1.528-1.035c-0.573-0.24-1.188-0.364-1.809-0.364s-1.236,0.124-1.809,0.364
	c-0.573,0.24-1.092,0.592-1.528,1.035c-0.886,0.902-1.383,2.117-1.383,3.381c0,1.265,0.497,2.479,1.383,3.381L17,26.125l7.369-7.462
	c0.886-0.902,1.383-2.117,1.383-3.381c0-1.265-0.497-2.479-1.383-3.381c-0.436-0.443-0.955-0.795-1.528-1.036
	C22.267,10.624,21.652,10.5,21.031,10.5z"/>
</svg>
