<?xml version="1.0" encoding="utf-8"?>
<!-- Generator: Adobe Illustrator 22.1.0, SVG Export Plug-In . SVG Version: 6.00 Build 0)  -->
<svg version="1.1" xmlns="http://www.w3.org/2000/svg" xmlns:xlink="http://www.w3.org/1999/xlink" x="0px" y="0px"
	 viewBox="0 0 21 21" style="enable-background:new 0 0 21 21;" xml:space="preserve">
<style type="text/css">
	.st0{fill:#141414;}
</style>
<path class="st0" d="M10.5,0.417c-1.825,0-3.512,0.45-5.061,1.349C3.889,2.665,2.665,3.889,1.766,5.439S0.417,8.675,0.417,10.5
	c0,1.825,0.45,3.512,1.349,5.061c0.899,1.549,2.124,2.774,3.673,3.673c1.549,0.899,3.236,1.349,5.061,1.349
	c1.366,0,2.672-0.266,3.919-0.798c1.247-0.532,2.321-1.247,3.22-2.147c0.899-0.899,1.615-1.973,2.147-3.22
	c0.532-1.247,0.798-2.554,0.798-3.919c0-1.365-0.266-2.672-0.798-3.919c-0.532-1.247-1.247-2.321-2.147-3.22
	c-0.899-0.899-1.973-1.615-3.22-2.147C13.172,0.683,11.865,0.417,10.5,0.417z M10.5,19.343c-0.958,0-1.887-0.148-2.787-0.443
	s-1.71-0.719-2.432-1.27c-0.722-0.551-1.356-1.188-1.9-1.91s-0.965-1.533-1.26-2.432c-0.295-0.899-0.443-1.828-0.443-2.787
	c0-1.195,0.233-2.337,0.699-3.427c0.466-1.09,1.093-2.028,1.881-2.816s1.726-1.415,2.816-1.881C8.163,1.91,9.305,1.677,10.5,1.677
	c1.195,0,2.337,0.233,3.427,0.699s2.028,1.093,2.816,1.881c0.788,0.788,1.415,1.727,1.881,2.816c0.466,1.09,0.699,2.232,0.699,3.427
	c0,1.195-0.233,2.337-0.699,3.427c-0.466,1.09-1.093,2.032-1.881,2.826c-0.788,0.794-1.726,1.425-2.816,1.891
	C12.837,19.11,11.695,19.343,10.5,19.343z M9.574,16.172h1.576v-1.595H9.574V16.172z M10.48,4.828c-0.184,0-0.361,0.01-0.532,0.03
	c-0.171,0.02-0.335,0.049-0.492,0.089C9.299,4.986,9.148,5.035,9.003,5.094C8.859,5.153,8.718,5.222,8.58,5.301
	C8.442,5.38,8.314,5.465,8.196,5.557C7.92,5.793,7.703,6.131,7.546,6.571c-0.158,0.44-0.23,0.876-0.217,1.31l0.02,0.059h1.457
	c0-0.276,0.043-0.558,0.128-0.847C9.02,6.804,9.141,6.601,9.299,6.482c0.158-0.131,0.335-0.23,0.532-0.295
	c0.197-0.066,0.414-0.098,0.65-0.098c0.276,0,0.515,0.039,0.719,0.118c0.203,0.079,0.377,0.19,0.522,0.335
	c0.289,0.289,0.433,0.702,0.433,1.241c0,0.236-0.026,0.45-0.079,0.64c-0.053,0.19-0.131,0.371-0.236,0.542
	c-0.223,0.315-0.584,0.775-1.083,1.379c-0.525,0.473-0.85,0.853-0.975,1.142c-0.125,0.289-0.187,0.801-0.187,1.536h1.517
	c0-0.459,0.026-0.801,0.079-1.024c0.026-0.105,0.082-0.22,0.167-0.345c0.085-0.125,0.2-0.259,0.345-0.404
	c0.289-0.289,0.555-0.574,0.798-0.857s0.456-0.555,0.64-0.817c0.355-0.551,0.532-1.162,0.532-1.832c0-0.919-0.279-1.635-0.837-2.147
	C12.276,5.084,11.491,4.828,10.48,4.828z"/>
</svg>
