<?xml version="1.0" encoding="utf-8"?>
<!-- Generator: Adobe Illustrator 22.1.0, SVG Export Plug-In . SVG Version: 6.00 Build 0)  -->
<svg version="1.1" xmlns="http://www.w3.org/2000/svg" xmlns:xlink="http://www.w3.org/1999/xlink" x="0px" y="0px"
	 viewBox="0 0 20 20" style="enable-background:new 0 0 20 20;" xml:space="preserve">
<style type="text/css">
	.st0{fill:#FFFFFF;}
</style>
<path class="st0" d="M9.998,5.193C7.337,5.193,5.19,7.34,5.19,10c0,2.66,2.147,4.807,4.807,4.807S14.805,12.66,14.805,10
	C14.805,7.34,12.658,5.193,9.998,5.193z M9.998,13.124c-1.72,0-3.124-1.404-3.124-3.124s1.404-3.124,3.124-3.124
	c1.72,0,3.124,1.404,3.124,3.124S11.718,13.124,9.998,13.124z"/>
<path class="st0" d="M15.001,3.876c-0.621,0-1.123,0.502-1.123,1.123s0.502,1.123,1.123,1.123c0.621,0,1.123-0.499,1.123-1.123
	c0-0.147-0.029-0.294-0.085-0.43c-0.056-0.136-0.139-0.26-0.243-0.364c-0.104-0.104-0.228-0.187-0.364-0.243
	C15.295,3.905,15.149,3.876,15.001,3.876z"/>
<path class="st0" d="M19.307,6.133c-0.073-1.5-0.415-2.831-1.512-3.928c-1.099-1.099-2.428-1.439-3.928-1.512
	C12.573,0.62,11.291,0.632,10,0.632c-1.294,0-2.576-0.012-3.867,0.061c-1.5,0.073-2.831,0.415-3.928,1.512
	C1.105,3.304,0.765,4.633,0.693,6.133C0.62,7.427,0.632,8.709,0.632,10s-0.012,2.576,0.061,3.867c0.073,1.5,0.415,2.831,1.512,3.928
	c1.099,1.099,2.428,1.439,3.928,1.512C7.426,19.38,8.708,19.368,10,19.368c1.294,0,2.576,0.012,3.867-0.061
	c1.5-0.073,2.831-0.415,3.928-1.512c1.099-1.099,1.439-2.428,1.512-3.928c0.075-1.291,0.061-2.573,0.061-3.867
	C19.368,8.706,19.379,7.424,19.307,6.133z M17.305,15.527c-0.171,0.427-0.377,0.745-0.708,1.073
	c-0.331,0.331-0.647,0.537-1.073,0.708c-1.233,0.49-4.16,0.38-5.527,0.38s-4.296,0.11-5.529-0.377
	c-0.427-0.171-0.745-0.377-1.073-0.708c-0.33-0.331-0.537-0.647-0.708-1.074C2.2,14.294,2.31,11.366,2.31,10S2.2,5.704,2.687,4.471
	c0.171-0.427,0.377-0.745,0.708-1.073S4.042,2.861,4.469,2.69c1.233-0.488,4.163-0.377,5.529-0.377s4.296-0.11,5.529,0.377
	c0.427,0.171,0.745,0.377,1.073,0.708c0.33,0.331,0.537,0.647,0.708,1.073c0.487,1.233,0.377,4.162,0.377,5.529
	S17.795,14.294,17.305,15.527z"/>
</svg>
