<?xml version="1.0" encoding="utf-8"?>
<!-- Generator: Adobe Illustrator 22.1.0, SVG Export Plug-In . SVG Version: 6.00 Build 0)  -->
<svg version="1.1" id="レイヤー_1" xmlns="http://www.w3.org/2000/svg" xmlns:xlink="http://www.w3.org/1999/xlink" x="0px"
	 y="0px" viewBox="0 0 26 26" style="enable-background:new 0 0 26 26;" xml:space="preserve">
<style type="text/css">
	.st0{opacity:0.3;fill:#FFFFFF;}
</style>
<path class="st0" d="M20.5,16.75H18v2.5h2.5V16.75z M20.5,11.75H18v2.5h2.5V11.75z M23,21.75H13v-2.5h2.5v-2.5H13v-2.5h2.5v-2.5H13
	v-2.5h10V21.75z M10.5,6.75H8v-2.5h2.5V6.75z M10.5,11.75H8v-2.5h2.5V11.75z M10.5,16.75H8v-2.5h2.5V16.75z M10.5,21.75H8v-2.5h2.5
	V21.75z M5.5,6.75H3v-2.5h2.5V6.75z M5.5,11.75H3v-2.5h2.5V11.75z M5.5,16.75H3v-2.5h2.5V16.75z M5.5,21.75H3v-2.5h2.5V21.75z
	 M13,6.75v-5H0.5v22.5h25V6.75H13z"/>
</svg>
