<?xml version="1.0" encoding="utf-8"?>
<!-- Generator: Adobe Illustrator 22.1.0, SVG Export Plug-In . SVG Version: 6.00 Build 0)  -->
<svg version="1.1" xmlns="http://www.w3.org/2000/svg" xmlns:xlink="http://www.w3.org/1999/xlink" x="0px" y="0px"
	 viewBox="0 0 96 175" style="enable-background:new 0 0 96 175;" xml:space="preserve">
<style type="text/css">
	.st0{fill:#BCA475;}
	.st1{fill:#FFFFFF;}
</style>
<path class="st0" d="M88.766,65.822c-0.14-4.077,0.4-8.347,0.355-10.9c-0.044-3.147-3.173-5.027-5.533-5.208
	c-1.952-0.162-3.266-0.4-4.063-0.629c-0.705-0.187-1.649-0.654-1.976-0.94c-0.305-0.279-0.444-0.426-0.454-0.526
	c0.01-0.106,0.149-0.257,0.454-0.53c0.326-0.287,1.271-0.763,1.976-0.945c0.797-0.227,2.111-0.476,4.063-0.625
	c2.36-0.193,5.488-2.074,5.533-5.212c0.045-2.554-0.496-6.821-0.355-10.906c0.052-1.72,0.19-3.874,0.451-5.461
	c0.004-0.032,0.026-0.097,0.004-0.135c-0.019-0.031-0.096-0.049-0.125-0.068c-1.487-0.561-3.443-1.519-4.954-2.334
	c-3.601-1.926-7.015-4.525-9.259-5.753c-2.743-1.533-5.935,0.229-7.281,2.181c-1.105,1.607-1.977,2.628-2.56,3.206
	c-0.526,0.513-1.41,1.106-1.814,1.25c-0.39,0.114-0.574,0.152-0.67,0.114c-0.085-0.07-0.146-0.256-0.22-0.643
	c-0.089-0.415-0.024-1.475,0.164-2.188c0.207-0.798,0.653-2.054,1.496-3.816c1.012-2.142,0.951-5.781-1.737-7.401
	c-2.205-1.316-6.164-2.982-9.628-5.14c-1.455-0.911-3.261-2.107-4.504-3.129c-0.031-0.017-0.071-0.077-0.12-0.07
	c-0.038-0.007-0.09,0.054-0.122,0.07c-1.238,1.021-3.036,2.218-4.5,3.129c-3.463,2.157-7.421,3.823-9.62,5.14
	c-2.698,1.62-2.754,5.26-1.747,7.401c0.842,1.762,1.284,3.018,1.5,3.816c0.184,0.713,0.254,1.772,0.167,2.188
	c-0.085,0.393-0.146,0.586-0.228,0.643c-0.1,0.048-0.283,0.005-0.673-0.114c-0.414-0.142-1.288-0.737-1.813-1.238
	c-0.586-0.59-1.455-1.597-2.572-3.213c-1.341-1.946-4.535-3.714-7.273-2.186c-2.244,1.24-5.66,3.838-9.261,5.764
	c-1.521,0.808-3.464,1.771-4.962,2.333c-0.033,0.02-0.104,0.027-0.12,0.066c-0.029,0.031,0,0.099,0.008,0.137
	c0.255,1.582,0.395,3.742,0.444,5.462c0.144,4.076-0.398,8.341-0.359,10.902c0.056,3.144,3.175,5.016,5.539,5.21
	c1.953,0.158,3.259,0.4,4.062,0.621c0.707,0.188,1.654,0.658,1.972,0.943c0.311,0.279,0.449,0.423,0.456,0.536
	c-0.007,0.098-0.146,0.248-0.456,0.52c-0.317,0.29-1.265,0.759-1.972,0.95c-0.803,0.224-2.109,0.468-4.062,0.622
	c-2.363,0.194-5.482,2.062-5.539,5.205c-0.039,2.562,0.503,6.823,0.359,10.908c-0.049,1.712-0.189,3.875-0.447,5.462
	c-0.008,0.03-0.037,0.097-0.008,0.133c0.017,0.043,0.087,0.062,0.12,0.074c1.498,0.558,3.44,1.516,4.962,2.328
	c3.601,1.926,7.017,4.526,9.261,5.767c2.738,1.524,5.932-0.24,7.273-2.185c1.117-1.618,1.986-2.631,2.572-3.212
	c0.524-0.517,1.399-1.107,1.813-1.238c0.387-0.126,0.573-0.16,0.67-0.126c0.077,0.068,0.136,0.253,0.215,0.642
	c0.096,0.414,0.025,1.476-0.166,2.182c-0.214,0.798-0.651,2.056-1.496,3.819c-1.012,2.152-0.946,5.795,1.743,7.402
	c2.201,1.324,6.159,2.988,9.628,5.144c1.455,0.909,3.256,2.104,4.496,3.124c0.03,0.018,0.078,0.075,0.125,0.073
	c0.039,0.002,0.088-0.056,0.112-0.073c1.236-1.021,3.04-2.215,4.507-3.124c3.455-2.155,7.422-3.819,9.628-5.144
	c2.684-1.607,2.748-5.25,1.733-7.402c-0.839-1.764-1.281-3.021-1.493-3.819c-0.192-0.706-0.256-1.768-0.168-2.182
	c0.085-0.396,0.136-0.583,0.228-0.645c0.095-0.049,0.283-0.014,0.679,0.114c0.404,0.146,1.288,0.736,1.814,1.246
	c0.583,0.578,1.455,1.586,2.56,3.2c1.346,1.962,4.538,3.726,7.274,2.204c2.252-1.25,5.665-3.849,9.266-5.773
	c1.512-0.81,3.467-1.775,4.954-2.334c0.029-0.019,0.107-0.02,0.125-0.069c0.022-0.029,0-0.096-0.004-0.138
	C88.956,69.7,88.817,67.54,88.766,65.822z M49.426,18.126c0.707-1.764,2.348-2.548,4.258-1.986c1.198,0.357,2.118,0.86,3.354,2.014
	c1.074,1.011,2.282,2.937,3.043,6.376c0.066,0.29,0.286,1.074,0.312,1.19c0.036,0.108,0.055,0.18,0.097,0.218v0.008
	c0.007,0,0.018,0.006,0.018,0.008c0.002,0.005,0.007,0.005,0.007,0.005l0.003-0.005c0.062,0.022,0.134,0,0.247-0.024
	c0.111-0.026,0.903-0.24,1.191-0.33c3.349-1.051,5.622-0.974,7.043-0.549c1.614,0.49,2.516,1.033,3.412,1.905
	c1.45,1.37,1.589,3.171,0.42,4.664c-0.615,0.801-1.746,1.352-2.814,1.637c-2.351,0.618-4.347,0.504-7.061,2.368
	c-1.688,1.145-3.491,2.856-4.488,3.836c-0.976,0.941-1.827,1.562-2.813,2.023c-1.675,0.782-3.172,0.502-4.101-0.056H51.55
	c-0.934-0.533-1.918-1.681-2.071-3.514c-0.091-1.08,0.018-2.123,0.351-3.438c0.34-1.35,0.914-3.772,1.071-5.803
	c0.249-3.289-0.835-4.958-1.48-7.295C49.132,20.308,49.046,19.05,49.426,18.126z M23.583,26.957
	c0.907-0.861,1.809-1.404,3.425-1.896c1.407-0.426,3.693-0.512,7.037,0.542c0.291,0.096,1.078,0.317,1.199,0.334
	c0.112,0.021,0.19,0.054,0.256,0.021c0,0,0.008,0,0.011-0.005c0.051-0.032,0.074-0.113,0.109-0.233
	c0.036-0.116,0.247-0.9,0.316-1.19c0.756-3.439,1.96-5.365,3.046-6.376c1.228-1.153,2.15-1.656,3.354-2.014
	c1.907-0.562,3.54,0.223,4.251,1.986c0.38,0.924,0.299,2.183,0.007,3.253c-0.648,2.337-1.735,4.006-1.48,7.295
	c0.149,2.031,0.728,4.453,1.071,5.803c0.332,1.314,0.449,2.357,0.352,3.438c-0.159,1.841-1.148,2.991-2.087,3.528v-0.008
	c0,0.008,0,0.008,0,0.008c-0.935,0.544-2.424,0.832-4.097,0.048c-0.993-0.461-1.839-1.089-2.815-2.021
	c-1.002-0.981-2.811-2.691-4.493-3.844c-2.714-1.854-4.711-1.748-7.062-2.359c-1.063-0.277-2.199-0.836-2.804-1.634
	C22.003,30.134,22.146,28.327,23.583,26.957z M17.91,58.443c-0.296-1.211-0.318-2.258,0.064-3.9c0.338-1.44,1.403-3.456,4.008-5.831
	c0.209-0.205,0.792-0.777,0.867-0.867c0.081-0.089,0.149-0.142,0.149-0.212c0-0.002,0-0.008,0-0.008c0-0.007,0-0.007,0-0.02
	c0-0.08-0.068-0.128-0.149-0.208c-0.075-0.092-0.658-0.674-0.867-0.878c-2.605-2.367-3.67-4.376-4.008-5.823
	c-0.382-1.637-0.36-2.692-0.064-3.901c0.467-1.936,1.961-2.964,3.846-2.706c0.984,0.146,2.041,0.841,2.821,1.63
	c1.698,1.725,2.606,3.505,5.571,4.936c1.846,0.876,4.22,1.587,5.569,1.968c1.304,0.365,2.268,0.797,3.161,1.423
	c1.512,1.051,2.015,2.493,2.007,3.58c0.008,1.076-0.495,2.517-2.007,3.577c-0.894,0.615-1.857,1.049-3.161,1.42
	c-1.349,0.383-3.723,1.09-5.569,1.965c-2.965,1.431-3.873,3.211-5.571,4.93c-0.781,0.791-1.837,1.494-2.821,1.623
	C19.871,61.41,18.376,60.377,17.91,58.443z M46.58,77.11c-0.711,1.759-2.353,2.548-4.26,1.982c-1.197-0.358-2.125-0.864-3.351-2.019
	c-1.078-1.003-2.291-2.941-3.041-6.368c-0.067-0.289-0.28-1.083-0.319-1.194c-0.038-0.118-0.056-0.186-0.101-0.218l0.002-0.002
	c-0.007-0.013-0.007-0.013-0.011-0.016c-0.005-0.007-0.012-0.007-0.012-0.007l-0.012,0.007c-0.049-0.014-0.125,0-0.232,0.024
	c-0.121,0.024-0.909,0.239-1.199,0.327c-3.344,1.061-5.63,0.979-7.037,0.556c-1.616-0.492-2.518-1.037-3.425-1.912
	c-1.437-1.365-1.58-3.177-0.405-4.668c0.605-0.787,1.741-1.345,2.804-1.628c2.352-0.619,4.349-0.514,7.062-2.372
	c1.683-1.14,3.491-2.853,4.493-3.831c0.977-0.941,1.823-1.56,2.815-2.019c1.672-0.779,3.162-0.503,4.097,0.046
	c0.939,0.532,1.915,1.684,2.076,3.516c0.088,1.082-0.022,2.134-0.353,3.442c-0.342,1.351-0.915,3.776-1.073,5.801
	c-0.251,3.282,0.836,4.961,1.48,7.297C46.876,74.921,46.953,76.189,46.58,77.11z M47.999,51.848c-0.447,0-1.249-0.335-2.01-0.775
	c-0.747-0.424-1.431-0.947-1.651-1.327c-0.214-0.383-0.328-1.255-0.324-2.12c-0.004-0.876,0.11-1.752,0.324-2.133
	c0.22-0.377,0.909-0.904,1.661-1.336c0.765-0.439,1.568-0.775,2.007-0.775c0.449,0,1.25,0.335,2.01,0.775
	c0.745,0.432,1.429,0.954,1.652,1.33c0.215,0.373,0.328,1.254,0.328,2.132c0,0.866-0.113,1.744-0.328,2.118
	c-0.223,0.38-0.917,0.912-1.665,1.336C49.253,51.513,48.44,51.848,47.999,51.848z M72.412,68.271
	c-0.896,0.863-1.798,1.416-3.412,1.896c-1.422,0.431-3.695,0.511-7.043-0.545c-0.288-0.094-1.08-0.309-1.191-0.329
	c-0.123-0.024-0.201-0.059-0.257-0.024c0,0-0.018,0-0.018,0.007c-0.058,0.033-0.071,0.111-0.105,0.235
	c-0.04,0.111-0.245,0.905-0.316,1.194c-0.752,3.427-1.968,5.365-3.048,6.368c-1.224,1.154-2.145,1.66-3.348,2.019
	c-1.914,0.565-3.55-0.224-4.259-1.982c-0.383-0.921-0.298-2.189-0.002-3.255c0.644-2.336,1.734-4.015,1.478-7.297
	c-0.152-2.024-0.732-4.45-1.067-5.801c-0.335-1.309-0.45-2.36-0.355-3.442c0.153-1.837,1.144-2.983,2.084-3.523l0.004,0.003
	c0-0.003,0-0.003,0-0.003c0.928-0.55,2.426-0.836,4.101-0.054c0.986,0.47,1.837,1.091,2.813,2.028
	c0.997,0.984,2.8,2.685,4.488,3.837c2.714,1.854,4.71,1.749,7.061,2.365c1.067,0.271,2.199,0.831,2.814,1.626
	C74.001,65.095,73.862,66.899,72.412,68.271z M78.092,58.443c-0.467,1.927-1.966,2.96-3.838,2.696
	c-0.998-0.136-2.042-0.834-2.825-1.628c-1.7-1.723-2.613-3.509-5.579-4.928c-1.842-0.88-4.22-1.595-5.565-1.972
	c-1.296-0.365-2.265-0.801-3.159-1.418c-1.52-1.059-2.021-2.501-2.004-3.576c-0.016-1.087,0.485-2.529,2.004-3.589
	c0.894-0.623,1.863-1.046,3.159-1.419c1.345-0.382,3.723-1.091,5.565-1.967c2.965-1.425,3.879-3.211,5.579-4.934
	c0.782-0.788,1.827-1.487,2.825-1.621c1.872-0.263,3.371,0.757,3.838,2.698c0.295,1.212,0.318,2.266-0.067,3.909
	c-0.335,1.43-1.399,3.451-3.994,5.823c-0.223,0.196-0.796,0.775-0.883,0.864c-0.071,0.094-0.144,0.142-0.146,0.216
	c0,0.002,0.003,0.006,0.003,0.019c0,0.007-0.003,0.007-0.003,0.007c0.003,0.067,0.076,0.119,0.146,0.209
	c0.086,0.096,0.66,0.67,0.883,0.878c2.595,2.369,3.659,4.379,3.994,5.824C78.411,56.174,78.388,57.22,78.092,58.443z"/>
<path class="st1" d="M42.84,134.598c0.744,0.038,0.837,0.182,1.353-0.042c0.841-0.358,0.97-0.903,0.428-1.25
	c-0.258-0.173-0.252-0.211-0.562-0.295c-1.195-0.321-2.102-0.277-3.76-0.043c-0.151,0.056-0.317,0.056-0.537,0.089
	c0.441-0.847,0.815-1.882,1.475-2.507c0.423-0.395,0.911-0.645,1.641-0.998c0.189-0.189,0.221-0.423,0.013-0.713
	c-0.088-0.12-0.417-0.319-0.567-0.371c-0.909-0.424-1.284,0.026-2.879,0.514c-0.539,0.224-1.237,0.138-1.521,0.047
	c0.111-0.331,1.214-2.339,1.214-2.339s0.4-0.14,1.262-0.373c0.723-0.204,1.526-0.215,2.237-0.236c0.202,0,0.601-0.052,0.782-0.45
	c0.141-0.303-0.005-0.837-0.329-0.928c-0.658-0.184-1.183-0.07-1.462-0.195c-0.125-0.05,0.407,0.239,0.274,0.27
	c-0.034-0.039-1.976,0.422-2.015,0.391c0.506-0.922,0.552-1.044,0.861-1.715c0.272-0.587,0.203-1.087-0.397-1.402
	c-0.732-0.382-1.077-0.454-1.442-0.23c-0.392,0.242,0.084,0.442,0.066,0.956c-0.013,0.516-0.259,1.435-0.479,2.026
	c-0.126,0.326-0.4,0.959-0.4,0.959s-0.328,0.115-0.625,0.212c-0.417,0.114-1.644,0.498-1.979,0.571
	c-0.424,0.098-0.732,0.046-1.029,0.177c-0.358,0.18,0.019,0.656,0.254,0.909c0.38,0.417,0.649,0.477,1.165,0.221
	c0.445-0.216,0.902-0.308,1.37-0.493c0.214-0.114,0.09,0.032,0.06,0.12c-1.334,2.649-2.726,5.467-4.743,7.306
	c-0.382,0.373,0.594-0.058,0.958-0.259c0.285-0.152,0.686-0.522,1.108-0.872c1.509-1.284,1.882-2.113,2.76-3.648
	c0.094-0.161,0.189-0.323,0.246-0.421c0.603,0.223,0.555,0.425,1.126,0.631c0.158,0.056,0.713-0.139,0.875-0.077
	c-0.394,0.649-0.616,1.57-1.376,2.404c-0.384,0.323-0.604,0.523-1.216,0.779c-0.611,0.257-0.591,0.706-0.157,1.421
	c0.112,0.046,0.362,0.202,0.464,0.186c0.668-0.09,1.125-0.504,2.058-0.643C40.351,134.147,41.502,134.183,42.84,134.598z"/>
<path class="st1" d="M32.967,130.352c0.131-0.439,0.405-1.206,0.836-1.843c-0.346,0.204-0.51,0.376-0.829,0.744
	c0.042-0.534-0.614-0.532-1.479-0.041c0,0,0.334-0.571,0.525-0.899c0.76-1.304,1.196-2.393,1.904-3.731
	c0.205-0.37,0.383-0.452,0.643-0.798c0.128-0.167,0.507-0.64,0.46-0.772c-0.072-0.186-0.332-0.375-0.539-0.414
	c-0.633-0.14-0.758-0.085-1.566,0.179c-0.257,0.079-0.585,0.029-0.64,0.049c-0.263,0.097-0.423,0.495,0.117,0.863
	c0.056,0.04,0.108,0.082,0.206,0.152c-0.206,0.476-0.284,0.823-0.45,1.278c-0.733,1.963-1.503,3.643-2.303,4.814
	c-0.39,0.569-0.746,0.916-0.407,1.467c0.196,0.318,0.426,0.404,0.721,0.175c0.219-0.17,0.413-0.362,0.627-0.531
	c0.24-0.185,0.491-0.357,0.739-0.534c0.054-0.019,0.102-0.03,0.081,0.024c-0.13,0.335-0.302,0.762-0.415,1.099
	c-0.201,0.612-0.064,1.062,0.288,1.84c0.122,0.271,0.609,1.173,0.825,0.889C33.204,132.957,32.44,132.062,32.967,130.352z"/>
<path class="st1" d="M76.988,152.328c-0.707-0.41-1.014-0.586-1.298,0.838c-1.016,5.053-1.259,6.818-2.413,10.335
	c-0.713,2.165-1.327,3.933-2.016,5.231c-0.508,0.956-1.215,1.166-1.284,2.885c-0.047,1.108-0.293,2.886,0.698,0.804
	c1.567-3.298,3.081-6.435,4.043-8.71c1.08-2.558,3.449-7.665,3.578-8.68C78.46,153.778,78.159,153.001,76.988,152.328z"/>
<path class="st1" d="M93.822,159.498c-0.994-0.858-1.45-1.384-2.634-1.743c-0.168-0.052-1.184-0.128-1.62,0.463
	c-0.444,0.591-0.228,0.991-0.592,1.213c-0.469,0.279-1.702,0.424-2.259,0.509c-1.256,0.191-3.859,0.779-3.859,0.779
	c0.362-0.572,3.564-2.134,4.596-2.645c0.346-0.172,0.878-0.406,1.236-0.554c0.401-0.159,1.046-0.327,1.342-0.511
	c0.329-0.201,0.621-0.674-0.051-1.37c-0.254-0.259-1.121-0.858-1.855-1.207c-1.192-0.568-1.232,0.488-1.871,0.738
	c-2.694,1.049-3.816,1.639-6.008,1.424c-0.773-0.073-1.532,0.133-1.39,0.579c0.168,0.525,0.447,0.616,0.968,0.853
	c0.712,0.323,1.623,0.591,2.39,0.594c0,0-0.362,0.651-0.75,0.933c-0.978,0.724-1.809,1.22-2.674,1.839
	c-0.393,0.283,0.622,1.8,0.845,2.094c0.214,0.284,0.898,0.568,1.517,0.373c0.844-0.261,1.687-0.278,1.687-0.278l-0.191,0.659
	c-0.755,0.314-1.584,0.793-2.743,1.298c-0.902,0.389-1.9,0.636-2.552,0.531c-2.396-0.392,0.277,1.634,1.529,1.55
	c0.568-0.038,2.53-0.367,2.53-0.367s-0.67,1.476-1.536,2.095c-0.53,0.381-1.342,0.899-0.678,1.518
	c0.522,0.486,1.45,1.645,2.122,1.475c2.305-0.579,6.598-0.885,10.349-0.024c1.044,0.24,1.688,0.164,2.389-0.29
	c0.543-0.353,1.47-2.024,0.986-2.767c-1.03-1.574-4.499-0.281-5.316-0.778c-0.477-0.294-0.144,0.382-0.144,0.382
	c-1.834,0.016-5.557,0.031-5.557,0.031s0.974-1.263,1.226-1.551c0.357-0.402,1.628-0.469,2.189-0.777
	c0.116-0.067,1.004-0.26,1.165-1.015c0.066-0.305-0.558-1.216-0.808-1.765c-0.23-0.504-1.174-0.934-1.174-0.934
	s1.208-0.164,1.931-0.94c0.496-0.533,0.483-1.302,0.691-1.336c0,0,1.607-0.48,2.168,1.572c0,0-1.348-0.071-1.865,0.042
	c0.927,0.183,1.63,0.559,1.921,0.781c1.812,1.364,3.591,1.662,4.194,0.284C95.997,162.14,95.081,160.581,93.822,159.498z"/>
<path class="st1" d="M77.955,149.664c0.797,0.822,1.827,1.048,2.846,0.809c1.132-0.266,3.775-0.939,6.403-1.449
	c-1.037,1.529-3.45,2.228-4.24,2.565c-0.609,0.263-2.786,0.367-3.439,0.497c-0.211,0.044-1.001,0.207-0.449,1.133
	c0.443,0.745,1.092,1.481,2.019,1.358c0.946-0.125,4.299-0.864,5.274-0.951c1.13-0.1,1.107-0.685,1.143-1.83
	c0.453-0.567,1.653-1.402,2.934-1.629c0.286-0.051,1.003-0.411,1.162-0.973c0.082-0.303-0.097-0.87-0.573-1.378
	c-0.179-0.197-1.676-1.519-2.624-2.081c-0.227-0.011-0.789,0.006-1.033,0.091c-1.969,0.697-7.844,2.11-9.372,1.876
	c-0.88-0.137-1.719-0.651-1.002,0.732C77.239,148.884,77.544,149.231,77.955,149.664z"/>
<path class="st1" d="M24.155,159.527c-0.687-0.298-2.395-0.902-2.763-1.033c0.2,0.163,0.38,0.432,0.38,0.432s-0.067,0.003-0.1,0.003
	c-1.765,0.056-4.987,0.201-6.727,0.388c0.028-0.569,0.234-1.277,0.285-1.709l0.115-0.245c1.292-1.043,1.929-1.546,3.491-2.654
	c1.028-0.728,2.135-0.875,2.535-0.796c0.431,0.083,1.294,0.309,0.973-0.458c-0.246-0.592-0.629-1.086-1.203-1.493
	c-0.656-0.352-1.344-0.781-2.001-1.19c-0.429-0.133-0.932-0.154-1.344,0.135c-0.683,0.482-1.785,0.828-2.517,0.896
	c-0.317,0.029-1.034,0.133-0.576,0.46c0.604,0.426,1.233,0.657,2.089,0.837c-0.685,1.013-1.746,1.838-2.288,2.331
	c-0.716-0.704-2.158-2.188-2.679-2.062c-0.161,0.041-0.331,0.586-0.43,1.42c-0.128,1.113-0.022,2.443-0.137,3.528
	c0,0-0.912,0.666-1.549,1.104c-1.808,1.238-3.803,2.192-5.922,2.816c-0.695,0.209-0.584,0.077-1.218,0.219
	c-0.636,0.142-1.327-0.104-1.866,0.18c-0.566,0.298-0.569,0.734-0.087,1.12c0.484,0.383,0.924,1.085,1.297,1.355
	c0.716,0.298,1.252,0.206,1.881-0.28c1.718-0.784,2.998-1.266,4.83-1.916c0.657-0.352,2.813-0.921,2.813-0.921
	s0.366,3.079,0.473,5.594c0.074,1.761,0.486,7.399,1.081,7.399c0.618,0,0.779-2.01,0.966-2.973c0.539-2.762,0.572-4.484,0.745-5.925
	c0.147-1.234,0.2-4.859,0.2-4.859c2.291-0.325,4.874,0.14,6.934,0.979c0.887,0.46,1.877,0.773,2.937,0.639
	c0.4-0.029,0.816-0.058,1.267-0.179c0.535-0.146,0.814-0.587,0.775-0.892C26.69,160.73,25.186,160.097,24.155,159.527z"/>
<path class="st1" d="M6.337,158.501c1.581,0.472,1.786-0.195,1.954-0.709c0.099-0.303,0.046-0.861,0.074-1.212
	c-0.056-0.572,0.146-1.114,0.631-1.546H8.851c-0.226,0.244-0.514,0.406-0.855,0.432c-0.086-0.486,0-0.947,0.369-1.354
	c1.546-1.327,3.465-2.775,5.24-3.833c1.398-0.574,2.392-1.164,3.805-1.696c0.121-0.043,0.85-0.134,0.972-0.176
	c0.636-0.207,0.813-0.917,0.413-1.232c-1.077-0.842-2.841-1.417-3.398-1.442c-0.558-0.029-0.899,0.15-1.401,0.497
	c-1.269,0.875-1.695,1.056-2.238,1.322c-0.608,0.298-1.926,0.849-3.089,0.919c-0.539,0.029-1.173-0.379-1.611,0.08
	c-0.358,0.376-0.267,0.789,0.24,1.225c0.591,0.511,2.443,1.384,3.357,1.302c-0.743,1.11-1.734,1.978-2.89,2.737
	c-1.161,0.758-2.522,0.131-2.856,0.222c-1.707,0.473,0.395,3.271,0.567,3.786C5.677,158.175,5.961,158.39,6.337,158.501z"/>
<path class="st1" d="M57.149,155.482c0.316-3.041,0.531-3.855,0.526-5.196c-0.007-0.826-0.779-1.492-2.252-2.179
	c-0.822-0.382-1.462,0.174-1.416,0.891c0.031,0.494-0.25,1.001-0.391,1.318c-0.321,0.736-1.095,1.723-1.095,1.723
	c0.494-0.426,1.22-0.939,1.574-1.244c-0.062,0.961,0.103,2.292,0.124,4.441c-0.043,1.245-0.117,2.822-0.056,3.848
	c0.115,1.972,0.356,3.371,0.319,5.234c-0.035,1.864-0.019,3.22-0.196,4.502c-0.243,1.752-0.287,2.649-0.207,2.927
	c0.132,0.464,0.79,0.045,1.295-0.401c0.506-0.451,1.497-1.487,2.035-2.532s0.417-2.755,0.09-5.006
	C57.174,161.557,56.928,157.636,57.149,155.482z"/>
<path class="st1" d="M50.263,155.345c-0.82,1.276-0.991,1.446-1.64,2.891c0.08-0.445,0.126-1.196,0.352-1.81
	c0.494-1.356,0.718-1.576,0.631-3.044c-0.031-0.575-0.602-1.233-0.945-1.34c-0.596-0.276-1.082-0.276-1.598-0.047
	c-0.29,0.129-0.27,0.564-0.596,1.455c-0.266,0.732-0.827,1.656-2.061,3.225c-0.133,0.078-0.273,0.183-0.399,0.323
	c-0.804,0.897-1.853,1.825-1.946,2.072c0.119-1.621,0.082-1.898,0.094-3.576c-0.083-0.243-0.192-0.485-0.358-0.699
	c-0.41-0.076-0.674,0.141-0.808,0.6c-0.205,1-0.692,3.674-1.869,5.942c-1.005,1.932-0.855,2.906-0.825,3.426
	c0.024,0.497,0.271,0.929,0.472,1.189c0.721,0.926,1.388,1.767,2.581,2.217c0.187-0.139,0.243-0.353,0.238-0.57
	c-0.199-1.077-0.232-2.133-0.163-3.211c0.072-1.137,0.258-2.964,0.451-3.6c0.163-0.55,1.463-2.403,2.294-3.403
	c0.92-0.542,1.535-0.846,2.241-1.638h0.112c-0.022,0.81-0.517,5.954-0.893,7.748c-0.14,0.678,0.531,1.524,1.243,2.131
	c0.586,0.504,1.572,1.135,1.922,0.941c0.488-0.271,0.3-1.034,0.099-1.649c-0.207-0.864-0.325-1.756-0.39-2.651
	c-0.125-1.2,0.127-2.107,0.507-3.321C49.453,157.527,50.529,154.976,50.263,155.345z"/>
<path class="st1" d="M63.984,130.079c-0.825,0.337-2.089,1.247-2.798,1.561c-0.293-0.256-0.522-0.71-0.816-0.969
	c0,0-0.172-0.104-0.177-0.101c0.176,0.939-0.333,3.511,0.667,4.145c0.111-0.097,0.21-0.246,0.337-0.281
	c0.31-0.087,0.316-0.282,0.25-0.543c-0.066-0.266-0.125-0.541-0.176-0.812c-0.096-0.521,0.027-0.805,0.513-0.973
	c0.389-0.136,0.93-0.41,1.339-0.495c0.302-0.073,0.563-0.143,0.217,0.245c-0.216,0.309-0.423,0.7-0.633,0.802
	c-0.405,0.196-0.724,0.409-0.898,0.775c-0.171,0.362,0.118,1.065,0.494,1.135c0.583,0.11,1.692,0.345,2.285,0.388
	c0.465,0.032,1.058-0.498,1.111-1.061c0.043-0.438-1.02-0.615-1.35-0.761c-0.104-0.045-0.204-0.092-0.324-0.146
	c0.269-0.359,1.128-1.239,1.547-1.303c0.471-0.07,0.605-0.444,0.337-0.877C65.643,130.377,64.443,129.895,63.984,130.079z"/>
<polygon class="st1" points="60.098,130.477 60.098,130.473 60.093,130.477 "/>
<path class="st1" d="M65.717,128.253c-0.54-0.019-1.085-0.007-1.624-0.034c-0.207-0.008-0.502-0.023-0.6-0.16
	c-0.435-0.594-1.273-0.666-1.66-0.663c-0.017-0.003-0.059,0.027-0.094,0.048c-0.301,0.149-0.605,0.297-0.943,0.468
	c0.119,0.093,0.251,0.202,0.404,0.325c-1.098,0.228-2.123,0.446-3.157,0.65c-0.076,0.016-0.18-0.05-0.253-0.101
	c-0.474-0.333-0.966-0.542-1.536-0.311c0.136,0.263,0.263,0.507,0.411,0.792c-1.101,0.307-1.727,0.487-2.745,0.77
	c-0.091,0.024-0.706,0.097-0.795,0.108c-0.738,0.08-0.625,0.063-1.029,0.021c-0.102-0.016-0.182,0.303-0.097,0.367
	c0.6,0.447,0.798,1.038,1.218,1.029c0.511,0.144,1.391-0.696,3.483-1.038c0.111,0.346,0.067,0.551-0.27,0.645
	c-0.282,0.077-0.552,0.202-0.828,0.293c-0.103,0.026-0.237,0.051-0.318,0.003c-0.363-0.208-0.693-0.034-1.019,0.093
	c-0.08,0.032-0.173,0.181-0.17,0.27c0.014,0.335,0.052,0.669,0.116,0.993c0.025,0.121,0.145,0.3,0.233,0.307
	c0.122,0.013,0.288-0.084,0.371-0.191c0.246-0.318,0.543-0.5,0.951-0.508c-0.44,0.481-0.876,0.968-1.386,1.356
	c-0.511,0.394-1.094,0.688-1.706,1.061c1.437,0.309,2.45-0.427,3.404-1.42c0.084,0.507,0.135,0.921,0.232,1.327
	c0.031,0.132,0.194,0.337,0.278,0.33c0.427-0.043,0.871-0.06,1.251-0.239c0.762-0.372,1.211-1.01,1.278-1.939
	c0.038-0.549,0.056-1.133,0.535-1.534c0.048-0.041,0.013-0.25-0.036-0.348c-0.063-0.111-0.199-0.186-0.374-0.34
	c0.356-0.087,0.604-0.149,0.856-0.21v0.001c0.5-0.33,0.997-0.672,1.503-0.999c0.106-0.062,0.24-0.106,0.362-0.104
	c0.441,0.002,0.885,0.023,1.323,0.059c0.993,0.082,1.958,0.47,2.966,0.29c0.2-0.033,0.371-0.299,0.531-0.482
	c0.048-0.049,0.042-0.232-0.002-0.279C66.475,128.644,66.196,128.267,65.717,128.253z M57.677,133.046
	c-0.098,0.19-0.249,0.251-0.432,0.079c-0.233-0.217-0.617-0.427-0.485-0.771c0.097-0.261,0.458-0.443,0.732-0.606
	c0.161-0.092,0.384-0.077,0.577-0.113c0.044,0.041,0.088,0.079,0.129,0.118C58.027,132.184,57.863,132.621,57.677,133.046z
	 M58.891,130.459c-0.035,0.034-0.088,0.048-0.135,0.052c-0.238,0.041-0.475,0.084-0.714,0.098c-0.108,0.006-0.222-0.036-0.333-0.057
	c0.028-0.101,0.026-0.256,0.092-0.313c0.179-0.135,0.375-0.28,0.583-0.339c0.472-0.125,0.961-0.197,1.511-0.304
	C59.531,129.912,59.212,130.186,58.891,130.459z"/>
<path class="st1" d="M58.999,124.019c-0.595,0.989-1.652,0.773-2.563,1.106c0.67,0.362,1.265,0.636,1.995,0.42
	c1.089-0.323,2.151-0.804,3.335-0.715c0.209,0.021,0.441-0.289,0.665-0.451c-0.199-0.185-0.391-0.382-0.592-0.555
	c-0.049-0.042-0.148-0.021-0.222-0.03c-0.371-0.036-0.737-0.067-1.112-0.1c-0.004-0.038-0.013-0.073-0.02-0.108
	c0.737-0.232,1.472-0.461,2.21-0.687c0.421-0.131,0.792-0.342,1.045-0.735c-0.751-0.637-1.633-0.695-2.444-0.197
	c-0.187,0.118-0.409,0.182-0.617,0.276c-0.026-0.037-0.045-0.077-0.068-0.11c0.114-0.198,0.227-0.398,0.357-0.619
	c-0.11-0.103-0.198-0.241-0.318-0.288c-0.369-0.136-0.74-0.255-1.117-0.351c-0.535-0.144-0.702-0.047-0.954,0.506
	c0.034,0.03,0.066,0.079,0.108,0.097c0.508,0.162,0.516,0.586,0.481,1.025c-0.01,0.081-0.085,0.205-0.148,0.225
	c-0.762,0.178-1.528,0.345-2.295,0.518c-0.323,0.07-0.648,0.133-1.02,0.204c0.588,0.2,1.089,0.436,1.618,0.524
	C57.853,124.068,58.405,124.014,58.999,124.019z"/>
<path class="st1" d="M63.812,125.768c-0.679-0.421-1.395-0.843-2.18-0.799c-1.515,0.073-2.98,0.471-4.343,1.207
	c-0.185,0.103-0.327,0.148-0.507-0.022c-0.07-0.071-0.262-0.097-0.341-0.047c-0.068,0.047-0.095,0.232-0.085,0.348
	c0.032,0.262,0.075,0.529,0.15,0.784c0.105,0.377,0.315,0.683,0.708,0.924c0.032-0.363,0.057-0.678,0.087-0.972
	c1.118-0.498,2.196-1.119,3.484-1.031c-1.063,0.519-2.125,1.042-3.276,1.609c0.696,0.322,1.314,0.174,1.911,0.125
	c0.537-0.048,1.065-0.217,1.597-0.306c0.391-0.061,0.749-0.145,0.988-0.513c-0.064-0.105-0.123-0.208-0.247-0.403
	c0.31-0.068,0.565-0.183,0.823-0.178C63.118,126.507,63.541,126.346,63.812,125.768z"/>
</svg>
