<?xml version="1.0" encoding="utf-8"?>
<!-- Generator: Adobe Illustrator 22.1.0, SVG Export Plug-In . SVG Version: 6.00 Build 0)  -->
<svg version="1.1" id="レイヤー_1" xmlns="http://www.w3.org/2000/svg" xmlns:xlink="http://www.w3.org/1999/xlink" x="0px"
	 y="0px" viewBox="0 0 191 37" style="enable-background:new 0 0 191 37;" xml:space="preserve">
<style type="text/css">
	.st0{fill:#BDA366;}
	.st1{fill:#141414;}
</style>
<path class="st0" d="M31.193,25.511c-0.048-1.573,0.154-3.207,0.131-4.195c-0.012-1.207-1.187-1.927-2.078-2
	c-0.736-0.061-1.223-0.159-1.52-0.244c-0.261-0.073-0.618-0.256-0.736-0.366c-0.119-0.11-0.166-0.159-0.166-0.207
	c0-0.037,0.047-0.097,0.166-0.207c0.119-0.11,0.475-0.293,0.736-0.366c0.297-0.085,0.795-0.183,1.52-0.244
	c0.89-0.073,2.054-0.792,2.078-2c0.012-0.988-0.19-2.622-0.131-4.195c0.024-0.659,0.071-1.488,0.166-2.097
	c0-0.012,0.012-0.037,0-0.049c-0.012-0.012-0.036-0.024-0.047-0.024c-0.558-0.219-1.294-0.585-1.852-0.902
	c-1.354-0.744-2.636-1.744-3.467-2.219c-1.033-0.585-2.22,0.098-2.731,0.841C22.846,7.66,22.526,8.05,22.3,8.269
	c-0.19,0.195-0.522,0.427-0.677,0.476c-0.142,0.049-0.214,0.061-0.249,0.049c-0.036-0.024-0.048-0.098-0.083-0.244
	c-0.036-0.159-0.012-0.573,0.059-0.841c0.083-0.305,0.249-0.793,0.558-1.475c0.38-0.829,0.356-2.231-0.653-2.841
	c-0.831-0.512-2.303-1.146-3.61-1.975C17.1,1.063,16.423,0.612,15.96,0.222c-0.012-0.012-0.024-0.037-0.048-0.024
	c-0.012,0-0.036,0.024-0.047,0.024c-0.463,0.39-1.14,0.854-1.686,1.195c-1.294,0.829-2.778,1.475-3.609,1.975
	C9.56,4.014,9.536,5.416,9.916,6.233c0.321,0.683,0.475,1.158,0.558,1.475c0.071,0.268,0.095,0.683,0.059,0.841
	c-0.036,0.146-0.047,0.219-0.083,0.244c-0.036,0.012-0.107,0-0.249-0.049c-0.154-0.049-0.487-0.28-0.677-0.476
	C9.299,8.05,8.978,7.66,8.563,7.038C8.064,6.294,6.865,5.611,5.832,6.197C4.989,6.672,3.707,7.672,2.365,8.416
	c-0.57,0.317-1.294,0.683-1.852,0.902c-0.012,0-0.036,0.012-0.047,0.024c-0.012,0.012,0,0.037,0,0.049
	c0.095,0.61,0.142,1.439,0.166,2.097c0.047,1.573-0.154,3.207-0.131,4.195c0.012,1.207,1.187,1.927,2.078,2
	c0.736,0.061,1.223,0.159,1.52,0.244C4.36,18,4.716,18.183,4.834,18.293c0.119,0.11,0.166,0.159,0.166,0.207
	c0,0.037-0.047,0.098-0.166,0.207C4.716,18.817,4.36,19,4.098,19.073c-0.297,0.085-0.796,0.183-1.52,0.244
	c-0.879,0.073-2.054,0.793-2.078,2c-0.012,0.988,0.19,2.634,0.131,4.195c-0.024,0.658-0.071,1.488-0.166,2.097
	c0,0.012-0.012,0.037,0,0.049c0.012,0.012,0.036,0.024,0.047,0.024c0.558,0.219,1.294,0.585,1.852,0.902
	c1.354,0.744,2.636,1.744,3.467,2.219c1.033,0.585,2.22-0.098,2.731-0.841c0.416-0.622,0.736-1.012,0.962-1.232
	c0.19-0.195,0.522-0.427,0.677-0.476c0.142-0.049,0.214-0.061,0.249-0.049c0.036,0.024,0.047,0.098,0.083,0.244
	c0.036,0.158,0.012,0.573-0.059,0.841c-0.083,0.305-0.249,0.793-0.558,1.463c-0.38,0.829-0.356,2.231,0.653,2.841
	c0.831,0.512,2.303,1.146,3.609,1.975c0.546,0.354,1.223,0.817,1.686,1.207c0.012,0.012,0.024,0.037,0.047,0.024
	c0.012,0,0.036-0.024,0.048-0.024c0.463-0.39,1.14-0.854,1.686-1.207c1.294-0.829,2.778-1.475,3.61-1.975
	c1.009-0.622,1.033-2.024,0.653-2.841c-0.321-0.683-0.475-1.158-0.558-1.463c-0.071-0.268-0.095-0.683-0.059-0.841
	c0.036-0.146,0.048-0.219,0.083-0.244c0.036-0.012,0.107,0,0.249,0.049c0.154,0.049,0.487,0.28,0.677,0.476
	c0.226,0.219,0.546,0.61,0.962,1.232c0.499,0.756,1.698,1.427,2.731,0.841c0.843-0.476,2.125-1.476,3.467-2.219
	c0.57-0.317,1.294-0.683,1.852-0.902c0.012-0.012,0.036-0.012,0.047-0.024s0-0.037,0-0.049
	C31.264,26.999,31.205,26.17,31.193,25.511z M16.447,7.16c0.273-0.683,0.879-0.975,1.591-0.768c0.451,0.134,0.796,0.329,1.259,0.768
	c0.404,0.39,0.855,1.134,1.14,2.451c0.024,0.11,0.107,0.415,0.119,0.463c0.012,0.049,0.024,0.073,0.036,0.085
	c0.024,0.012,0.048,0,0.095-0.012c0.047-0.012,0.344-0.098,0.451-0.122c1.259-0.402,2.113-0.378,2.636-0.207
	c0.606,0.183,0.938,0.402,1.282,0.732c0.546,0.524,0.594,1.219,0.154,1.792c-0.226,0.305-0.653,0.524-1.057,0.622
	c-0.879,0.244-1.627,0.195-2.648,0.914c-0.629,0.439-1.306,1.097-1.686,1.476c-0.368,0.366-0.677,0.597-1.057,0.78
	c-0.629,0.305-1.187,0.195-1.532-0.024c-0.344-0.207-0.712-0.646-0.772-1.354c-0.036-0.415,0.012-0.817,0.131-1.329
	c0.131-0.524,0.344-1.451,0.404-2.231c0.095-1.268-0.309-1.902-0.558-2.805C16.34,7.989,16.304,7.513,16.447,7.16z M6.77,10.55
	c0.344-0.329,0.677-0.536,1.282-0.732c0.534-0.159,1.389-0.195,2.636,0.207c0.107,0.037,0.404,0.122,0.451,0.122
	c0.048,0.012,0.071,0.024,0.095,0.012c0.024-0.012,0.024-0.037,0.036-0.085c0.012-0.037,0.095-0.341,0.119-0.463
	c0.285-1.317,0.736-2.061,1.14-2.451c0.463-0.439,0.807-0.634,1.259-0.768c0.712-0.219,1.33,0.085,1.591,0.768
	c0.142,0.354,0.107,0.841,0,1.256c-0.237,0.902-0.653,1.549-0.558,2.805c0.059,0.78,0.273,1.719,0.404,2.231
	c0.119,0.5,0.166,0.902,0.131,1.329c-0.059,0.707-0.427,1.146-0.784,1.354c-0.344,0.207-0.914,0.317-1.532,0.012
	c-0.368-0.171-0.689-0.415-1.057-0.78c-0.38-0.378-1.057-1.036-1.686-1.475c-1.021-0.719-1.769-0.671-2.648-0.915
	c-0.404-0.11-0.819-0.317-1.057-0.622C6.176,11.781,6.224,11.086,6.77,10.55z M4.645,22.67c-0.107-0.463-0.119-0.866,0.024-1.5
	c0.131-0.549,0.522-1.329,1.496-2.244c0.083-0.073,0.297-0.305,0.332-0.329c0.036-0.037,0.059-0.049,0.059-0.085
	c0-0.024-0.024-0.049-0.059-0.085c-0.024-0.037-0.249-0.256-0.332-0.341c-0.974-0.914-1.377-1.683-1.496-2.244
	c-0.142-0.634-0.131-1.036-0.024-1.5c0.178-0.744,0.736-1.134,1.437-1.036c0.368,0.049,0.76,0.317,1.057,0.622
	c0.641,0.658,0.985,1.353,2.09,1.902c0.689,0.341,1.579,0.61,2.09,0.756c0.487,0.146,0.843,0.305,1.187,0.549
	c0.57,0.402,0.76,0.963,0.748,1.378c0,0.415-0.178,0.976-0.748,1.378c-0.332,0.232-0.701,0.402-1.187,0.549
	c-0.511,0.146-1.401,0.415-2.09,0.756c-1.116,0.549-1.449,1.232-2.09,1.89c-0.297,0.305-0.689,0.573-1.057,0.622
	C5.381,23.816,4.811,23.414,4.645,22.67z M15.378,29.852c-0.273,0.671-0.879,0.975-1.591,0.756c-0.451-0.134-0.795-0.329-1.259-0.78
	c-0.404-0.39-0.855-1.134-1.14-2.451c-0.024-0.11-0.107-0.415-0.119-0.463c-0.012-0.037-0.024-0.073-0.036-0.085
	c-0.024-0.012-0.047,0-0.095,0.012c-0.047,0.012-0.344,0.085-0.451,0.122c-1.259,0.402-2.113,0.378-2.636,0.207
	c-0.606-0.183-0.938-0.402-1.282-0.732c-0.546-0.524-0.594-1.219-0.154-1.792c0.226-0.305,0.653-0.524,1.057-0.634
	c0.879-0.232,1.627-0.195,2.648-0.915c0.629-0.439,1.306-1.097,1.686-1.475c0.368-0.366,0.677-0.597,1.057-0.78
	c0.629-0.305,1.187-0.195,1.532,0.024c0.344,0.207,0.712,0.646,0.772,1.354c0.036,0.415-0.012,0.817-0.131,1.329
	c-0.131,0.524-0.344,1.451-0.404,2.232c-0.095,1.268,0.309,1.902,0.558,2.805C15.497,29.011,15.52,29.499,15.378,29.852z
	 M15.912,20.134c-0.166,0-0.475-0.134-0.748-0.305c-0.285-0.171-0.534-0.366-0.617-0.512c-0.083-0.146-0.119-0.488-0.119-0.817
	c0-0.341,0.036-0.671,0.119-0.817c0.083-0.146,0.344-0.354,0.629-0.512c0.285-0.171,0.582-0.305,0.748-0.305
	c0.166,0,0.475,0.134,0.748,0.305s0.534,0.366,0.617,0.512c0.083,0.146,0.119,0.488,0.119,0.817c0,0.341-0.036,0.671-0.119,0.817
	c-0.083,0.146-0.344,0.354-0.617,0.512C16.375,20,16.079,20.134,15.912,20.134z M25.067,26.45c-0.344,0.329-0.677,0.536-1.282,0.732
	c-0.534,0.159-1.389,0.195-2.636-0.207c-0.107-0.037-0.404-0.122-0.451-0.122c-0.048-0.012-0.071-0.024-0.095-0.012
	c-0.024,0.012-0.024,0.049-0.036,0.085c-0.012,0.049-0.095,0.354-0.119,0.463c-0.285,1.317-0.736,2.061-1.14,2.451
	c-0.463,0.439-0.807,0.634-1.259,0.78c-0.712,0.219-1.33-0.085-1.591-0.756c-0.142-0.354-0.107-0.841,0-1.256
	c0.237-0.902,0.653-1.549,0.558-2.805c-0.059-0.78-0.273-1.719-0.404-2.231c-0.119-0.5-0.166-0.914-0.131-1.329
	c0.059-0.707,0.427-1.146,0.784-1.354c0.344-0.207,0.914-0.317,1.532-0.024c0.368,0.183,0.689,0.415,1.057,0.78
	c0.38,0.378,1.057,1.036,1.686,1.475c1.021,0.719,1.769,0.671,2.648,0.915c0.404,0.11,0.819,0.317,1.057,0.622
	C25.66,25.231,25.601,25.926,25.067,26.45z M27.192,22.67c-0.178,0.744-0.736,1.146-1.437,1.036
	c-0.368-0.049-0.76-0.317-1.057-0.622c-0.641-0.659-0.985-1.354-2.09-1.89c-0.689-0.341-1.579-0.61-2.09-0.756
	c-0.487-0.146-0.843-0.305-1.187-0.549c-0.57-0.402-0.76-0.963-0.748-1.378c0-0.415,0.178-0.976,0.748-1.378
	c0.332-0.244,0.701-0.402,1.187-0.549c0.51-0.146,1.401-0.427,2.09-0.756c1.116-0.549,1.448-1.232,2.09-1.902
	c0.297-0.305,0.689-0.573,1.057-0.622c0.7-0.097,1.27,0.293,1.437,1.036c0.107,0.463,0.119,0.866-0.024,1.5
	c-0.131,0.549-0.522,1.329-1.496,2.244c-0.083,0.073-0.297,0.305-0.333,0.329c-0.024,0.037-0.059,0.049-0.059,0.073c0,0,0,0,0,0.012
	c0,0.024,0.024,0.049,0.059,0.085c0.024,0.037,0.249,0.256,0.333,0.341c0.974,0.914,1.377,1.683,1.496,2.244
	C27.311,21.792,27.299,22.207,27.192,22.67z"/>
<path class="st1" d="M173.134,10.564c-0.673-0.337-0.841-0.505-1.177,0.842c-1.01,4.714-1.178,6.397-2.356,9.764
	c-0.841,2.02-1.346,3.703-2.019,4.882c-0.337,1.01-0.842,0.842-1.01,2.525c-0.168,1.01-0.336,2.693,0.673,0.673
	c1.515-3.03,2.861-5.724,3.702-7.912c1.01-2.357,3.197-7.239,3.365-8.249C174.48,11.91,174.144,11.237,173.134,10.564z"/>
<path class="st1" d="M188.783,17.297c-1.01-0.842-1.346-1.347-2.524-1.683c-0.169,0-1.178,0-1.515,0.505
	c-0.336,0.505-0.168,1.01-0.504,1.178c-0.505,0.337-1.683,0.505-2.188,0.505c-1.178,0.168-3.028,0.505-3.028,0.505
	c0.336-0.505,2.692-1.852,3.701-2.357c0.337-0.168,0.842-0.337,1.178-0.505c0.337-0.168,1.01-0.337,1.178-0.337
	c0.336-0.168,0.673-0.673,0-1.347c-0.168-0.337-1.01-0.842-1.683-0.842c-1.009-0.505-1.009,0.505-1.682,0.673
	c-2.524,1.01-3.534,1.515-5.553,1.347c-0.841-0.168-1.514,0-1.346,0.505c0.168,0.505,0.337,0.673,0.841,0.842
	c0.673,0.168,1.515,0.505,2.188,0.505c0,0-0.337,0.505-0.673,0.842c-1.01,0.673-1.683,1.178-2.524,1.683
	c-0.337,0.337,0.673,1.683,0.841,2.02c0.168,0.168,0.841,0.505,1.346,0.337c0.673-0.337,1.514-0.337,1.514-0.337l-0.168,0.673
	c-0.673,0.168-1.514,0.673-2.524,1.178c-0.841,0.337-1.682,0.505-2.187,0.337c-2.356-0.337,0.168,1.515,1.346,1.515
	c0.505,0,2.524-0.505,2.524-0.505s-0.673,1.515-1.514,2.02c-0.505,0.505-1.347,1.01-0.674,1.515
	c0.505,0.505,1.178,1.683,1.851,1.515c2.02-0.505,6.058-0.842,9.591,0c1.01,0.337,1.683,0.168,2.524-0.168
	c0.505-0.337,1.346-2.02,0.841-2.693c-0.841-1.347-4.038-0.168-4.879-0.673c-0.505-0.337-0.168,0.337-0.168,0.337
	c-1.683,0-5.216,0-5.216,0s1.009-1.178,1.177-1.515c0.337-0.337,1.515-0.337,2.02-0.673c0-0.168,0.841-0.337,1.009-1.01
	c0.168-0.337-0.505-1.178-0.673-1.683c-0.336-0.505-1.178-0.842-1.178-0.842s1.178-0.337,1.851-1.01
	c0.505-0.505,0.505-1.347,0.673-1.347c0,0,1.178-0.505,1.683,1.515c0,0-1.01-0.168-1.515,0c0.842,0.168,1.515,0.505,1.851,0.673
	c1.683,1.347,3.365,1.683,3.87,0.337C190.802,19.822,189.96,18.307,188.783,17.297z"/>
<path class="st1" d="M173.976,7.533c0.841,0.842,1.682,1.01,2.692,0.842c1.009-0.168,3.365-0.842,5.889-1.347
	c-0.841,1.515-3.197,2.188-3.87,2.525c-0.505,0.337-2.524,0.337-3.197,0.505c-0.168,0-0.841,0.168-0.336,1.01
	c0.336,0.842,1.009,1.515,1.85,1.347c0.842,0,4.039-0.842,4.88-0.842c1.01,0,1.01-0.673,1.01-1.683
	c0.336-0.505,1.514-1.347,2.692-1.515c0.168,0,0.841-0.337,1.009-0.842c0.169-0.337,0-0.842-0.505-1.347
	c-0.168-0.168-1.514-1.347-2.187-2.525c-0.336,0-0.841,0.168-1.009,0.168c-1.851,0.673-7.404,2.02-8.75,1.852
	c-0.841-0.168-1.683-0.673-1.01,0.673C173.303,6.86,173.639,7.197,173.976,7.533z"/>
<path class="st1" d="M109.868,16.624c1.515,0.505,1.683-0.168,1.851-0.673c0-0.337,0-0.842,0-1.178
	c-0.168-0.505,0-1.178,0.505-1.515h-0.168c-0.337,0.168-0.505,0.337-0.842,0.337c-0.168-0.505,0-1.01,0.337-1.347
	c1.514-1.347,3.197-2.693,4.88-3.703c1.346-0.673,2.187-1.178,3.533-1.683c0,0,0.673-0.168,0.841-0.168
	c0.505-0.168,0.673-0.842,0.337-1.178c-0.841-0.842-2.524-1.347-2.861-0.673c-0.504,0-0.841,0.168-1.346,0.505
	c-1.178,0.673-1.514,0.842-2.019,1.178c-0.505,0.168-1.851,0.842-2.86,0.842c-0.505,0-1.178-0.505-1.515,0
	c-0.336,0.337-0.336,0.842,0.169,1.178c0.673,0.505,2.355,1.178,3.197,1.178c-0.673,1.01-1.683,1.852-2.693,2.525
	c-1.177,0.673-2.355,0-2.692,0.168c-1.682,0.337,0.337,3.03,0.505,3.535C109.195,16.287,109.532,16.455,109.868,16.624z"/>
<path class="st1" d="M123.666,16.287c0.03,0.015,0.079,0.035,0.126,0.055C123.752,16.31,123.709,16.287,123.666,16.287z"/>
<path class="st1" d="M126.19,17.297c-0.613-0.307-1.916-0.75-2.398-0.955c0.117,0.095,0.21,0.281,0.21,0.281h-0.168
	c-1.514,0.168-4.543,0.168-6.226,0.337c0.169-0.673,0.337-1.347,0.337-1.683l0.168-0.168c1.178-1.01,1.683-1.515,3.197-2.525
	c1.01-0.673,2.019-0.673,2.356-0.673c0.336,0,1.178,0.168,0.841-0.505c-0.168-0.505-0.505-1.01-1.178-1.347
	s-1.178-0.842-1.851-1.178c-0.336-0.168-0.841-0.168-1.177,0.168c-0.674,0.505-1.683,0.842-2.356,0.842
	c-0.337,0.168-1.01,0.168-0.505,0.505c0.673,0.505,1.178,0.673,2.019,0.842c-0.673,1.01-1.682,1.683-2.187,2.188
	c-0.673-0.673-2.019-2.188-2.524-2.02c-0.168,0-0.168,0.505-0.337,1.347c-0.168,1.01,0,2.357-0.168,3.367
	c0,0-0.841,0.673-1.514,1.178c-1.683,1.178-3.534,2.02-5.553,2.693c-0.673,0.168-0.505,0-1.178,0.168
	c-0.504,0.168-1.177-0.168-1.682,0.168c-0.505,0.168-0.505,0.673,0,1.01c0.505,0.505,0.841,1.01,1.178,1.347
	c0.673,0.168,1.177,0.168,1.682-0.337c1.683-0.842,2.861-1.178,4.543-1.852c0.673-0.337,2.524-1.01,2.524-1.01
	s0.337,3.03,0.505,5.387c0,1.683,0.505,7.07,1.009,7.07c0.674,0,0.842-1.852,1.01-3.03c0.505-2.525,0.505-4.208,0.673-5.555
	c0.168-1.178,0.168-4.545,0.168-4.545c2.188-0.337,4.543,0.168,6.563,1.01c0.841,0.505,1.682,0.842,2.692,0.673
	c0.336,0,0.841,0,1.178-0.168c0.504-0.168,0.673-0.505,0.673-0.842C128.545,18.475,127.199,17.802,126.19,17.297z"/>
<path class="st1" d="M149.241,13.257c-0.673,1.178-0.841,1.347-1.514,2.693c0-0.337,0.168-1.178,0.336-1.683
	c0.505-1.347,0.673-1.515,0.505-2.862c0-0.673-0.505-1.178-0.841-1.347c-0.505-0.168-1.01-0.168-1.515,0
	c-0.168,0-0.168,0.505-0.504,1.347c-0.152,0.755-0.714,1.651-1.92,3.163c-0.093,0.056-0.185,0.121-0.268,0.204
	c-0.841,0.842-1.682,1.852-1.851,2.02c0.169-1.515,0.169-1.852,0.169-3.535c0-0.168-0.169-0.505-0.337-0.673
	c-0.336-0.168-0.505,0-0.673,0.505c-0.168,1.01-0.505,3.535-1.683,5.724c-1.009,1.852-0.841,2.693-0.841,3.198
	c0.168,0.505,0.337,1.01,0.505,1.178c0.673,1.01,1.178,1.683,2.356,2.188c0.168-0.168,0.168-0.337,0.168-0.505
	c-0.168-1.01-0.168-2.02-0.168-3.03c0-1.01,0.168-2.862,0.336-3.367c0.129-0.518,1.351-2.326,2.139-3.289
	c0.786-0.596,1.428-0.792,2.068-1.593h0.168c0,0.842-0.505,5.724-0.841,7.407c-0.169,0.673,0.504,1.515,1.177,2.02
	c0.505,0.505,1.346,1.01,1.515,0.842c0.505-0.168,0.336-1.01,0.168-1.515c-0.168-0.842-0.337-1.683-0.337-2.525
	c-0.168-1.178,0.169-2.02,0.505-3.198C148.4,15.277,149.409,12.92,149.241,13.257z"/>
<path class="st1" d="M155.803,13.257c0.337-2.862,0.505-3.535,0.505-4.882c0-0.673-0.841-1.347-2.356-2.02
	c-0.841-0.337-1.346,0.168-1.346,0.842c0,0.337-0.168,0.842-0.336,1.178c-0.337,0.673-1.01,1.683-1.01,1.683
	c0.505-0.337,1.178-0.842,1.515-1.178c0,0.842,0.168,2.188,0.168,4.208c0,1.178,0,2.693,0,3.703c0.168,2.02,0.336,3.198,0.336,5.05
	c0,1.683,0,3.03-0.168,4.208c-0.168,1.683-0.168,2.525-0.168,2.862c0,0.337,0.673,0,1.346-0.673
	c0.505-0.337,1.346-1.347,1.851-2.357c0.336-1.01,0.336-2.525,0-4.713C155.803,18.98,155.635,15.277,155.803,13.257z"/>
<path class="st1" d="M64.102,26.724c-0.337-0.168-0.337-0.168-0.673-0.337c-1.683-0.337-2.692-0.168-4.88,0.168
	c-0.168,0.168-0.336,0.168-0.673,0.168c0.841-1.01,1.178-2.525,2.187-3.198c0.673-0.673,1.009-0.673,2.019-1.515
	c0.168-0.337,0.336-0.673,0-1.01c-0.168-0.168-0.673-0.505-0.841-0.505c-1.514-0.505-2.187-0.168-4.375,0.673
	c-0.673,0.337-1.178,0.168-1.683,0.168c0.168-0.505,0.337-0.673,0.673-1.347c0.505-1.515,1.346-2.357,2.692-2.525
	c1.01,0,1.851-0.168,2.86-0.337c0.336,0,0.673,0,0.673-0.505c0.168-0.505-0.168-1.178-0.505-1.178
	c-0.609-0.102-1.95-0.815-2.994-1.439c0.297-0.472,0.687-0.907,1.311-1.254c0.841-0.505-0.168-1.347-1.178-1.515l-1.346,0.842
	c-0.336,0.337-0.673,0.168-1.01,0.673c0.337,0.168,0.673,0.168,0.841,0.337c-0.168,0.842-0.505,1.515-0.841,2.357
	c-0.336,0.842-0.841,1.347-1.683,1.683c-0.673,0.168-1.178,0.505-1.683,0.673c-0.336,0-0.673,0.168-1.01,0.168
	s-0.841,0.168-1.346,0.168c0.168,0.505,0.168,0.673,0.336,1.01c0.168,0.673,0.841,1.01,1.514,0.673
	c0.673-0.337,1.178-0.505,2.019-0.673v0.168c-1.851,3.535-3.702,7.07-7.067,9.595c0.673,0.337,1.178,0.337,1.683,0
	c0.336-0.337,0.673-0.505,1.01-0.842c2.019-1.347,3.197-3.367,4.375-5.387c0.168-0.168,0.336-0.337,0.336-0.505
	c0.841,0.337,0.673,0.505,1.514,0.842c0.168,0,1.01-0.168,1.178-0.168c-0.505,0.842-0.505,2.02-1.683,3.198
	c-0.505,0.337-0.841,0.673-1.683,1.01c-0.841,0.337-0.673,0.842-0.168,1.852c0.168,0,0.505,0.168,0.673,0.168
	c1.01,0,1.346-0.168,2.692-0.505c1.01-0.168,2.524-0.337,4.375-0.168c1.01,0.168,1.178,0.337,1.851,0
	C64.606,27.902,64.775,27.229,64.102,26.724z M60.4,15.614l-2.86,0.505c0.371-0.65,0.595-1.348,0.969-1.987
	C59.434,14.827,60.494,15.614,60.4,15.614z"/>
<path class="st1" d="M48.622,22.684c0.168-0.505,0.168-1.515,0.841-2.525c-0.505,0.337-0.505,0.842-1.009,1.347
	c0-0.673-0.505-0.673-1.683-0.337c0.168-0.168,0.168-0.337,0.168-0.505c1.01-1.683,1.851-3.535,2.86-5.387
	c0.168-0.505,0.505-0.505,0.505-1.01c0.168-0.168,0.673-0.842,0.673-1.01c0-0.168-0.336-0.505-0.673-0.505
	c-0.841-0.337-1.009-0.168-2.019,0.168c-0.336,0-0.841,0-0.841,0c-0.336,0.168-0.505,0.673,0.168,1.178c0.168,0,0.168,0,0.336,0.168
	c-0.168,0.673-0.336,1.178-0.673,1.852c-0.841,2.525-2.019,4.882-3.029,6.397c-0.505,0.842-1.01,1.347-0.505,2.02
	c0.336,0.337,0.505,0.505,1.009,0.168c0.337-0.168,0.505-0.505,0.841-0.673c0.337-0.337,0.673-0.505,0.841-0.842
	c0.168,0,0.168,0,0.168,0c-0.168,0.505-0.505,1.01-0.673,1.347c-0.673,1.178-0.337,1.683,0.505,2.693
	c0.337,0.337,0.841,0.842,1.178,0.505C48.79,25.714,47.949,25.041,48.622,22.684z"/>
<path class="st1" d="M88.836,20.159c-0.673,0-1.514,0-2.187,0c-0.336,0-0.673,0-0.841-0.168c-0.505-0.842-1.683-0.842-2.187-0.842
	h-0.168c-0.336,0.168-0.673,0.505-1.178,0.673c0.168,0.168,0.336,0.337,0.505,0.505c-1.514,0.337-2.86,0.673-4.206,1.01
	c-0.168,0-0.168-0.168-0.337-0.168c-0.673-0.337-1.346-0.673-2.019-0.337c0.168,0.337,0.336,0.673,0.505,1.01
	c-1.514,0.337-2.356,0.673-3.702,1.01c0,0-0.841,0.168-1.01,0.168c-1.01,0-0.841,0-1.346,0c-0.168,0-0.336,0.505-0.168,0.505
	c0.841,0.505,1.178,1.347,1.683,1.347c0.673,0.168,1.851-1.01,4.711-1.515c0.168,0.505,0.168,0.673-0.337,0.842
	c-0.505,0-0.841,0.168-1.178,0.337c-0.168,0-0.336,0-0.505,0c-0.505-0.168-0.841,0-1.346,0.168c0,0-0.168,0.168-0.168,0.337
	c0,0.505,0,0.842,0.168,1.347c0,0.168,0.168,0.337,0.337,0.337c0.168,0.168,0.336,0,0.336-0.168
	c0.336-0.337,0.841-0.673,1.346-0.673c-0.673,0.673-1.178,1.347-1.851,1.852c-0.673,0.673-1.346,1.01-2.187,1.515
	c2.019,0.337,3.365-0.673,4.543-2.02c0.168,0.673,0.168,1.347,0.336,1.852c0,0.168,0.168,0.505,0.336,0.505
	c0.505,0,1.178-0.168,1.683-0.337c1.01-0.505,1.683-1.515,1.683-2.693c0-0.673,0-1.515,0.673-2.02c0.168-0.168,0-0.337,0-0.505
	c-0.168-0.168-0.337-0.337-0.505-0.505c0.427-0.143,0.733-0.17,1.021-0.275c0.088,1.444-0.45,4.357,0.83,5.157
	c0.168-0.168,0.337-0.337,0.505-0.337c0.337-0.168,0.337-0.337,0.337-0.673c0-0.337-0.168-0.673-0.168-1.01
	c-0.168-0.673,0-1.01,0.673-1.178c0.505-0.168,1.178-0.505,1.683-0.673c0.505,0,0.841-0.168,0.336,0.337
	c-0.336,0.337-0.505,0.842-0.841,1.01c-0.505,0.337-1.009,0.505-1.178,1.01c-0.168,0.505,0.168,1.347,0.673,1.515
	c0.673,0.168,2.019,0.505,2.86,0.505c0.505,0,1.346-0.673,1.346-1.347c0.168-0.673-1.346-0.842-1.683-1.01
	c0,0-0.168-0.168-0.336-0.168c0.336-0.505,1.514-1.683,2.019-1.683c0.673-0.168,0.841-0.673,0.505-1.178
	c-0.337-0.673-1.851-1.178-2.524-1.01c-1.01,0.505-2.692,1.683-3.534,2.02c-0.336-0.337-0.673-0.842-1.01-1.178
	c0,0-0.161-0.082-0.316-0.188c0.503-0.498,1.166-0.993,1.83-1.159c0.168-0.168,0.336-0.168,0.505-0.168c0.673,0,1.178,0,1.851,0
	c1.346,0.168,2.692,0.673,4.038,0.337c0.168,0,0.505-0.505,0.673-0.673v-0.337C89.845,20.664,89.509,20.159,88.836,20.159z
	 M78.235,26.556c-0.168,0.337-0.336,0.337-0.673,0.168c-0.336-0.337-0.841-0.505-0.673-1.01c0.168-0.337,0.673-0.673,1.01-0.842
	c0.336-0.168,0.505-0.168,0.841-0.168l0.168,0.168C78.572,25.546,78.404,26.051,78.235,26.556z M79.75,23.189h-0.168
	c-0.336,0-0.673,0.168-1.009,0.168c-0.168,0-0.337,0-0.505,0c0,0,0-0.337,0.168-0.337c0.337-0.168,0.505-0.505,0.841-0.505
	c0.673-0.168,1.346-0.337,2.019-0.505C80.591,22.347,80.086,22.684,79.75,23.189z"/>
<path class="st1" d="M79.918,14.435c-0.673,1.347-2.187,1.01-3.365,1.515c0.811,0.487,1.623,0.807,2.434,0.679
	c-0.484,0.193-0.96,0.414-1.425,0.668c-0.168,0.168-0.505,0.168-0.673,0c-0.168,0-0.336,0-0.505,0
	c-0.168,0.168-0.168,0.337-0.168,0.505c0,0.337,0,0.673,0.168,1.01c0.168,0.505,0.505,0.842,1.01,1.178
	c0.168-0.505,0.168-1.01,0.168-1.347c1.514-0.673,3.029-1.515,4.711-1.347c-1.346,0.673-2.86,1.515-4.375,2.188
	c0.841,0.505,1.683,0.168,2.524,0.168s1.514-0.168,2.187-0.337c0.505,0,1.01-0.168,1.346-0.673
	c-0.168-0.168-0.168-0.337-0.505-0.673c0.505,0,0.841-0.168,1.178-0.168c0.673,0,1.346-0.168,1.683-1.01
	c-0.841-0.505-1.851-1.01-2.86-1.178c-0.975,0.081-1.949,0.246-2.905,0.503c1.025-0.344,2.049-0.617,3.073-0.503
	c0.168,0,0.505-0.505,0.841-0.673c-0.337-0.168-0.505-0.505-0.841-0.673c-0.168,0-0.168,0-0.336,0c-0.505,0-1.009-0.168-1.514-0.168
	V13.93c1.01-0.168,2.019-0.505,3.029-0.842c0.505-0.168,1.01-0.505,1.346-1.01c-1.01-0.842-2.187-1.01-3.197-0.337
	c-0.336,0.168-0.505,0.168-0.841,0.337c-0.168,0-0.168-0.168-0.168-0.168c0.168-0.337,0.337-0.505,0.505-0.842
	c0-0.168-0.168-0.337-0.336-0.337c-0.505-0.168-1.01-0.337-1.514-0.505c-0.841-0.168-1.01,0-1.346,0.673l0.168,0.168
	c0.673,0.168,0.673,0.673,0.673,1.347c0,0.168-0.168,0.337-0.168,0.337c-1.01,0.168-2.019,0.505-3.029,0.673
	c-0.337,0.168-0.841,0.168-1.346,0.337c0.841,0.168,1.514,0.505,2.187,0.673C78.404,14.435,79.077,14.435,79.918,14.435z"/>
</svg>
